solid 
 facet normal  0.000000e+00 -1.000000e+00  0.000000e+00
   outer loop
     vertex  2.000000e+01 -1.000000e+01  0.000000e+00
     vertex -2.000000e+01 -1.000000e+01  3.000000e+00
     vertex -2.000000e+01 -1.000000e+01  0.000000e+00
   endloop
 endfacet
 facet normal  0.000000e+00 -1.000000e+00  0.000000e+00
   outer loop
     vertex  2.000000e+01 -1.000000e+01  0.000000e+00
     vertex  2.000000e+01 -1.000000e+01  3.000000e+00
     vertex -2.000000e+01 -1.000000e+01  3.000000e+00
   endloop
 endfacet
 facet normal -1.000000e+00  0.000000e+00  0.000000e+00
   outer loop
     vertex -2.000000e+01 -1.000000e+01  0.000000e+00
     vertex -2.000000e+01  1.000000e+01  3.000000e+00
     vertex -2.000000e+01  1.000000e+01  0.000000e+00
   endloop
 endfacet
 facet normal -1.000000e+00  0.000000e+00  0.000000e+00
   outer loop
     vertex -2.000000e+01 -1.000000e+01  0.000000e+00
     vertex -2.000000e+01 -1.000000e+01  3.000000e+00
     vertex -2.000000e+01  1.000000e+01  3.000000e+00
   endloop
 endfacet
 facet normal  1.000000e+00  0.000000e+00  0.000000e+00
   outer loop
     vertex  2.000000e+01  1.000000e+01  0.000000e+00
     vertex  2.000000e+01 -1.000000e+01  3.000000e+00
     vertex  2.000000e+01 -1.000000e+01  0.000000e+00
   endloop
 endfacet
 facet normal  1.000000e+00  0.000000e+00 -0.000000e+00
   outer loop
     vertex  2.000000e+01  1.000000e+01  0.000000e+00
     vertex  2.000000e+01  1.000000e+01  3.000000e+00
     vertex  2.000000e+01 -1.000000e+01  3.000000e+00
   endloop
 endfacet
 facet normal -0.000000e+00  0.000000e+00 -1.000000e+00
   outer loop
     vertex -5.611871e-01 -8.276890e-01  0.000000e+00
     vertex -2.000000e+01 -1.000000e+01  0.000000e+00
     vertex -7.259955e-01 -6.876995e-01  0.000000e+00
   endloop
 endfacet
 facet normal  0.000000e+00 -0.000000e+00 -1.000000e+00
   outer loop
     vertex -8.568572e-01 -5.155539e-01  0.000000e+00
     vertex -7.259955e-01 -6.876995e-01  0.000000e+00
     vertex -2.000000e+01 -1.000000e+01  0.000000e+00
   endloop
 endfacet
 facet normal -0.000000e+00  0.000000e+00 -1.000000e+00
   outer loop
     vertex -3.701382e-01 -9.289767e-01  0.000000e+00
     vertex -2.000000e+01 -1.000000e+01  0.000000e+00
     vertex -5.611871e-01 -8.276890e-01  0.000000e+00
   endloop
 endfacet
 facet normal  0.000000e+00 -0.000000e+00 -1.000000e+00
   outer loop
     vertex -9.476532e-01 -3.193015e-01  0.000000e+00
     vertex -8.568572e-01 -5.155539e-01  0.000000e+00
     vertex -2.000000e+01 -1.000000e+01  0.000000e+00
   endloop
 endfacet
 facet normal -0.000000e+00  0.000000e+00 -1.000000e+00
   outer loop
     vertex -1.617820e-01 -9.868265e-01  0.000000e+00
     vertex -2.000000e+01 -1.000000e+01  0.000000e+00
     vertex -3.701382e-01 -9.289767e-01  0.000000e+00
   endloop
 endfacet
 facet normal  0.000000e+00 -0.000000e+00 -1.000000e+00
   outer loop
     vertex -9.941380e-01 -1.081190e-01  0.000000e+00
     vertex -9.476532e-01 -3.193015e-01  0.000000e+00
     vertex -2.000000e+01 -1.000000e+01  0.000000e+00
   endloop
 endfacet
 facet normal -0.000000e+00  0.000000e+00 -1.000000e+00
   outer loop
     vertex  5.413891e-02 -9.985334e-01  0.000000e+00
     vertex -2.000000e+01 -1.000000e+01  0.000000e+00
     vertex -1.617820e-01 -9.868265e-01  0.000000e+00
   endloop
 endfacet
 facet normal -0.000000e+00  0.000000e+00 -1.000000e+00
   outer loop
     vertex -9.941380e-01  1.081190e-01  0.000000e+00
     vertex -2.000000e+01 -1.000000e+01  0.000000e+00
     vertex -2.000000e+01  1.000000e+01  0.000000e+00
   endloop
 endfacet
 facet normal  0.000000e+00 -0.000000e+00 -1.000000e+00
   outer loop
     vertex -9.941380e-01  1.081190e-01  0.000000e+00
     vertex -9.941380e-01 -1.081190e-01  0.000000e+00
     vertex -2.000000e+01 -1.000000e+01  0.000000e+00
   endloop
 endfacet
 facet normal -0.000000e+00  0.000000e+00 -1.000000e+00
   outer loop
     vertex -9.476532e-01  3.193015e-01  0.000000e+00
     vertex -9.941380e-01  1.081190e-01  0.000000e+00
     vertex -2.000000e+01  1.000000e+01  0.000000e+00
   endloop
 endfacet
 facet normal -0.000000e+00  0.000000e+00 -1.000000e+00
   outer loop
     vertex -8.568572e-01  5.155539e-01  0.000000e+00
     vertex -9.476532e-01  3.193015e-01  0.000000e+00
     vertex -2.000000e+01  1.000000e+01  0.000000e+00
   endloop
 endfacet
 facet normal -0.000000e+00  0.000000e+00 -1.000000e+00
   outer loop
     vertex -7.259955e-01  6.876995e-01  0.000000e+00
     vertex -8.568572e-01  5.155539e-01  0.000000e+00
     vertex -2.000000e+01  1.000000e+01  0.000000e+00
   endloop
 endfacet
 facet normal -0.000000e+00  0.000000e+00 -1.000000e+00
   outer loop
     vertex -5.611871e-01  8.276890e-01  0.000000e+00
     vertex -7.259955e-01  6.876995e-01  0.000000e+00
     vertex -2.000000e+01  1.000000e+01  0.000000e+00
   endloop
 endfacet
 facet normal -0.000000e+00  0.000000e+00 -1.000000e+00
   outer loop
     vertex -3.701382e-01  9.289767e-01  0.000000e+00
     vertex -5.611871e-01  8.276890e-01  0.000000e+00
     vertex -2.000000e+01  1.000000e+01  0.000000e+00
   endloop
 endfacet
 facet normal -0.000000e+00  0.000000e+00 -1.000000e+00
   outer loop
     vertex -1.617820e-01  9.868265e-01  0.000000e+00
     vertex -3.701382e-01  9.289767e-01  0.000000e+00
     vertex -2.000000e+01  1.000000e+01  0.000000e+00
   endloop
 endfacet
 facet normal -0.000000e+00  0.000000e+00 -1.000000e+00
   outer loop
     vertex  5.413891e-02  9.985334e-01  0.000000e+00
     vertex -1.617820e-01  9.868265e-01  0.000000e+00
     vertex -2.000000e+01  1.000000e+01  0.000000e+00
   endloop
 endfacet
 facet normal  0.000000e+00  0.000000e+00 -1.000000e+00
   outer loop
     vertex  2.000000e+01 -1.000000e+01  0.000000e+00
     vertex  5.413891e-02 -9.985334e-01  0.000000e+00
     vertex  2.675283e-01 -9.635500e-01  0.000000e+00
   endloop
 endfacet
 facet normal  0.000000e+00  0.000000e+00 -1.000000e+00
   outer loop
     vertex  2.000000e+01 -1.000000e+01  0.000000e+00
     vertex  2.675283e-01 -9.635500e-01  0.000000e+00
     vertex  4.684084e-01 -8.835120e-01  0.000000e+00
   endloop
 endfacet
 facet normal  0.000000e+00  0.000000e+00 -1.000000e+00
   outer loop
     vertex  2.000000e+01 -1.000000e+01  0.000000e+00
     vertex  4.684084e-01 -8.835120e-01  0.000000e+00
     vertex  6.473863e-01 -7.621621e-01  0.000000e+00
   endloop
 endfacet
 facet normal  0.000000e+00  0.000000e+00 -1.000000e+00
   outer loop
     vertex  2.000000e+01 -1.000000e+01  0.000000e+00
     vertex  6.473863e-01 -7.621621e-01  0.000000e+00
     vertex  7.960931e-01 -6.051742e-01  0.000000e+00
   endloop
 endfacet
 facet normal  0.000000e+00  0.000000e+00 -1.000000e+00
   outer loop
     vertex  2.000000e+01 -1.000000e+01  0.000000e+00
     vertex  7.960931e-01 -6.051742e-01  0.000000e+00
     vertex  9.075754e-01 -4.198891e-01  0.000000e+00
   endloop
 endfacet
 facet normal  0.000000e+00  0.000000e+00 -1.000000e+00
   outer loop
     vertex  2.000000e+01 -1.000000e+01  0.000000e+00
     vertex  9.075754e-01 -4.198891e-01  0.000000e+00
     vertex  9.766206e-01 -2.149704e-01  0.000000e+00
   endloop
 endfacet
 facet normal  0.000000e+00  0.000000e+00 -1.000000e+00
   outer loop
     vertex  2.000000e+01 -1.000000e+01  0.000000e+00
     vertex  9.766206e-01 -2.149704e-01  0.000000e+00
     vertex  1.000000e+00 -2.449294e-16  0.000000e+00
   endloop
 endfacet
 facet normal  0.000000e+00  0.000000e+00 -1.000000e+00
   outer loop
     vertex  2.000000e+01 -1.000000e+01  0.000000e+00
     vertex -2.000000e+01 -1.000000e+01  0.000000e+00
     vertex  5.413891e-02 -9.985334e-01  0.000000e+00
   endloop
 endfacet
 facet normal  0.000000e+00  0.000000e+00 -1.000000e+00
   outer loop
     vertex  2.000000e+01  1.000000e+01  0.000000e+00
     vertex  1.000000e+00 -2.449294e-16  0.000000e+00
     vertex  9.766206e-01  2.149704e-01  0.000000e+00
   endloop
 endfacet
 facet normal  0.000000e+00  0.000000e+00 -1.000000e+00
   outer loop
     vertex  2.000000e+01  1.000000e+01  0.000000e+00
     vertex  9.766206e-01  2.149704e-01  0.000000e+00
     vertex  9.075754e-01  4.198891e-01  0.000000e+00
   endloop
 endfacet
 facet normal  0.000000e+00  0.000000e+00 -1.000000e+00
   outer loop
     vertex  2.000000e+01  1.000000e+01  0.000000e+00
     vertex  9.075754e-01  4.198891e-01  0.000000e+00
     vertex  7.960931e-01  6.051742e-01  0.000000e+00
   endloop
 endfacet
 facet normal  0.000000e+00  0.000000e+00 -1.000000e+00
   outer loop
     vertex  2.000000e+01  1.000000e+01  0.000000e+00
     vertex  7.960931e-01  6.051742e-01  0.000000e+00
     vertex  6.473863e-01  7.621621e-01  0.000000e+00
   endloop
 endfacet
 facet normal  0.000000e+00  0.000000e+00 -1.000000e+00
   outer loop
     vertex  2.000000e+01  1.000000e+01  0.000000e+00
     vertex  6.473863e-01  7.621621e-01  0.000000e+00
     vertex  4.684084e-01  8.835120e-01  0.000000e+00
   endloop
 endfacet
 facet normal  0.000000e+00  0.000000e+00 -1.000000e+00
   outer loop
     vertex  2.000000e+01  1.000000e+01  0.000000e+00
     vertex  4.684084e-01  8.835120e-01  0.000000e+00
     vertex  2.675283e-01  9.635500e-01  0.000000e+00
   endloop
 endfacet
 facet normal  0.000000e+00  0.000000e+00 -1.000000e+00
   outer loop
     vertex  2.000000e+01  1.000000e+01  0.000000e+00
     vertex  2.675283e-01  9.635500e-01  0.000000e+00
     vertex  5.413891e-02  9.985334e-01  0.000000e+00
   endloop
 endfacet
 facet normal  0.000000e+00 -0.000000e+00 -1.000000e+00
   outer loop
     vertex  2.000000e+01  1.000000e+01  0.000000e+00
     vertex  2.000000e+01 -1.000000e+01  0.000000e+00
     vertex  1.000000e+00 -2.449294e-16  0.000000e+00
   endloop
 endfacet
 facet normal -0.000000e+00  0.000000e+00 -1.000000e+00
   outer loop
     vertex  2.000000e+01  1.000000e+01  0.000000e+00
     vertex  5.413891e-02  9.985334e-01  0.000000e+00
     vertex -2.000000e+01  1.000000e+01  0.000000e+00
   endloop
 endfacet
 facet normal  0.000000e+00  0.000000e+00  1.000000e+00
   outer loop
     vertex -1.402968e+00 -2.069222e+00  3.000000e+00
     vertex -1.814989e+00 -1.719249e+00  3.000000e+00
     vertex -2.000000e+01 -1.000000e+01  3.000000e+00
   endloop
 endfacet
 facet normal  0.000000e+00  0.000000e+00  1.000000e+00
   outer loop
     vertex -2.142143e+00 -1.288885e+00  3.000000e+00
     vertex -2.000000e+01 -1.000000e+01  3.000000e+00
     vertex -1.814989e+00 -1.719249e+00  3.000000e+00
   endloop
 endfacet
 facet normal  0.000000e+00  0.000000e+00  1.000000e+00
   outer loop
     vertex -9.253454e-01 -2.322442e+00  3.000000e+00
     vertex -1.402968e+00 -2.069222e+00  3.000000e+00
     vertex -2.000000e+01 -1.000000e+01  3.000000e+00
   endloop
 endfacet
 facet normal  0.000000e+00  0.000000e+00  1.000000e+00
   outer loop
     vertex -2.369133e+00 -7.982538e-01  3.000000e+00
     vertex -2.000000e+01 -1.000000e+01  3.000000e+00
     vertex -2.142143e+00 -1.288885e+00  3.000000e+00
   endloop
 endfacet
 facet normal  0.000000e+00  0.000000e+00  1.000000e+00
   outer loop
     vertex -4.044550e-01 -2.467066e+00  3.000000e+00
     vertex -9.253454e-01 -2.322442e+00  3.000000e+00
     vertex -2.000000e+01 -1.000000e+01  3.000000e+00
   endloop
 endfacet
 facet normal  0.000000e+00  0.000000e+00  1.000000e+00
   outer loop
     vertex -2.485345e+00 -2.702975e-01  3.000000e+00
     vertex -2.000000e+01  1.000000e+01  3.000000e+00
     vertex -2.000000e+01 -1.000000e+01  3.000000e+00
   endloop
 endfacet
 facet normal  0.000000e+00  0.000000e+00  1.000000e+00
   outer loop
     vertex -2.485345e+00 -2.702975e-01  3.000000e+00
     vertex -2.000000e+01 -1.000000e+01  3.000000e+00
     vertex -2.369133e+00 -7.982538e-01  3.000000e+00
   endloop
 endfacet
 facet normal  0.000000e+00  0.000000e+00  1.000000e+00
   outer loop
     vertex  1.353473e-01 -2.496334e+00  3.000000e+00
     vertex -4.044550e-01 -2.467066e+00  3.000000e+00
     vertex -2.000000e+01 -1.000000e+01  3.000000e+00
   endloop
 endfacet
 facet normal  0.000000e+00  0.000000e+00  1.000000e+00
   outer loop
     vertex -2.485345e+00  2.702975e-01  3.000000e+00
     vertex -2.000000e+01  1.000000e+01  3.000000e+00
     vertex -2.485345e+00 -2.702975e-01  3.000000e+00
   endloop
 endfacet
 facet normal  0.000000e+00  0.000000e+00  1.000000e+00
   outer loop
     vertex -2.369133e+00  7.982538e-01  3.000000e+00
     vertex -2.000000e+01  1.000000e+01  3.000000e+00
     vertex -2.485345e+00  2.702975e-01  3.000000e+00
   endloop
 endfacet
 facet normal  0.000000e+00  0.000000e+00  1.000000e+00
   outer loop
     vertex -2.142143e+00  1.288885e+00  3.000000e+00
     vertex -2.000000e+01  1.000000e+01  3.000000e+00
     vertex -2.369133e+00  7.982538e-01  3.000000e+00
   endloop
 endfacet
 facet normal  0.000000e+00  0.000000e+00  1.000000e+00
   outer loop
     vertex -1.814989e+00  1.719249e+00  3.000000e+00
     vertex -2.000000e+01  1.000000e+01  3.000000e+00
     vertex -2.142143e+00  1.288885e+00  3.000000e+00
   endloop
 endfacet
 facet normal  0.000000e+00  0.000000e+00  1.000000e+00
   outer loop
     vertex -1.402968e+00  2.069222e+00  3.000000e+00
     vertex -2.000000e+01  1.000000e+01  3.000000e+00
     vertex -1.814989e+00  1.719249e+00  3.000000e+00
   endloop
 endfacet
 facet normal  0.000000e+00  0.000000e+00  1.000000e+00
   outer loop
     vertex -9.253454e-01  2.322442e+00  3.000000e+00
     vertex -2.000000e+01  1.000000e+01  3.000000e+00
     vertex -1.402968e+00  2.069222e+00  3.000000e+00
   endloop
 endfacet
 facet normal  0.000000e+00  0.000000e+00  1.000000e+00
   outer loop
     vertex -4.044550e-01  2.467066e+00  3.000000e+00
     vertex -2.000000e+01  1.000000e+01  3.000000e+00
     vertex -9.253454e-01  2.322442e+00  3.000000e+00
   endloop
 endfacet
 facet normal  0.000000e+00  0.000000e+00  1.000000e+00
   outer loop
     vertex  2.000000e+01 -1.000000e+01  3.000000e+00
     vertex  6.688208e-01 -2.408875e+00  3.000000e+00
     vertex  1.353473e-01 -2.496334e+00  3.000000e+00
   endloop
 endfacet
 facet normal  0.000000e+00  0.000000e+00  1.000000e+00
   outer loop
     vertex  2.000000e+01 -1.000000e+01  3.000000e+00
     vertex  1.171021e+00 -2.208780e+00  3.000000e+00
     vertex  6.688208e-01 -2.408875e+00  3.000000e+00
   endloop
 endfacet
 facet normal  0.000000e+00  0.000000e+00  1.000000e+00
   outer loop
     vertex  2.000000e+01 -1.000000e+01  3.000000e+00
     vertex  1.618466e+00 -1.905405e+00  3.000000e+00
     vertex  1.171021e+00 -2.208780e+00  3.000000e+00
   endloop
 endfacet
 facet normal  0.000000e+00  0.000000e+00  1.000000e+00
   outer loop
     vertex  2.000000e+01 -1.000000e+01  3.000000e+00
     vertex  1.990233e+00 -1.512936e+00  3.000000e+00
     vertex  1.618466e+00 -1.905405e+00  3.000000e+00
   endloop
 endfacet
 facet normal  0.000000e+00  0.000000e+00  1.000000e+00
   outer loop
     vertex  2.000000e+01 -1.000000e+01  3.000000e+00
     vertex  2.268939e+00 -1.049723e+00  3.000000e+00
     vertex  1.990233e+00 -1.512936e+00  3.000000e+00
   endloop
 endfacet
 facet normal  0.000000e+00  0.000000e+00  1.000000e+00
   outer loop
     vertex  2.000000e+01 -1.000000e+01  3.000000e+00
     vertex  2.441551e+00 -5.374261e-01  3.000000e+00
     vertex  2.268939e+00 -1.049723e+00  3.000000e+00
   endloop
 endfacet
 facet normal  0.000000e+00  0.000000e+00  1.000000e+00
   outer loop
     vertex  2.000000e+01 -1.000000e+01  3.000000e+00
     vertex  2.500000e+00 -6.123234e-16  3.000000e+00
     vertex  2.441551e+00 -5.374261e-01  3.000000e+00
   endloop
 endfacet
 facet normal  0.000000e+00  0.000000e+00  1.000000e+00
   outer loop
     vertex  2.000000e+01 -1.000000e+01  3.000000e+00
     vertex  1.353473e-01 -2.496334e+00  3.000000e+00
     vertex -2.000000e+01 -1.000000e+01  3.000000e+00
   endloop
 endfacet
 facet normal  0.000000e+00  0.000000e+00  1.000000e+00
   outer loop
     vertex  2.000000e+01  1.000000e+01  3.000000e+00
     vertex  2.441551e+00  5.374261e-01  3.000000e+00
     vertex  2.500000e+00 -6.123234e-16  3.000000e+00
   endloop
 endfacet
 facet normal  0.000000e+00  0.000000e+00  1.000000e+00
   outer loop
     vertex  2.000000e+01  1.000000e+01  3.000000e+00
     vertex  2.268939e+00  1.049723e+00  3.000000e+00
     vertex  2.441551e+00  5.374261e-01  3.000000e+00
   endloop
 endfacet
 facet normal  0.000000e+00  0.000000e+00  1.000000e+00
   outer loop
     vertex  2.000000e+01  1.000000e+01  3.000000e+00
     vertex  1.990233e+00  1.512936e+00  3.000000e+00
     vertex  2.268939e+00  1.049723e+00  3.000000e+00
   endloop
 endfacet
 facet normal  0.000000e+00  0.000000e+00  1.000000e+00
   outer loop
     vertex  2.000000e+01  1.000000e+01  3.000000e+00
     vertex  1.618466e+00  1.905405e+00  3.000000e+00
     vertex  1.990233e+00  1.512936e+00  3.000000e+00
   endloop
 endfacet
 facet normal  0.000000e+00  0.000000e+00  1.000000e+00
   outer loop
     vertex  2.000000e+01  1.000000e+01  3.000000e+00
     vertex  1.171021e+00  2.208780e+00  3.000000e+00
     vertex  1.618466e+00  1.905405e+00  3.000000e+00
   endloop
 endfacet
 facet normal  0.000000e+00  0.000000e+00  1.000000e+00
   outer loop
     vertex  2.000000e+01  1.000000e+01  3.000000e+00
     vertex  6.688208e-01  2.408875e+00  3.000000e+00
     vertex  1.171021e+00  2.208780e+00  3.000000e+00
   endloop
 endfacet
 facet normal  0.000000e+00  0.000000e+00  1.000000e+00
   outer loop
     vertex  2.000000e+01  1.000000e+01  3.000000e+00
     vertex  1.353473e-01  2.496334e+00  3.000000e+00
     vertex  6.688208e-01  2.408875e+00  3.000000e+00
   endloop
 endfacet
 facet normal  0.000000e+00  0.000000e+00  1.000000e+00
   outer loop
     vertex  2.000000e+01  1.000000e+01  3.000000e+00
     vertex  2.500000e+00 -6.123234e-16  3.000000e+00
     vertex  2.000000e+01 -1.000000e+01  3.000000e+00
   endloop
 endfacet
 facet normal  0.000000e+00  0.000000e+00  1.000000e+00
   outer loop
     vertex  2.000000e+01  1.000000e+01  3.000000e+00
     vertex -2.000000e+01  1.000000e+01  3.000000e+00
     vertex  1.353473e-01  2.496334e+00  3.000000e+00
   endloop
 endfacet
 facet normal  0.000000e+00  0.000000e+00  1.000000e+00
   outer loop
     vertex  1.353473e-01  2.496334e+00  3.000000e+00
     vertex -2.000000e+01  1.000000e+01  3.000000e+00
     vertex -4.044550e-01  2.467066e+00  3.000000e+00
   endloop
 endfacet
 facet normal  0.000000e+00  1.000000e+00  0.000000e+00
   outer loop
     vertex -2.000000e+01  1.000000e+01  0.000000e+00
     vertex  2.000000e+01  1.000000e+01  3.000000e+00
     vertex  2.000000e+01  1.000000e+01  0.000000e+00
   endloop
 endfacet
 facet normal  0.000000e+00  1.000000e+00  0.000000e+00
   outer loop
     vertex -2.000000e+01  1.000000e+01  0.000000e+00
     vertex -2.000000e+01  1.000000e+01  3.000000e+00
     vertex  2.000000e+01  1.000000e+01  3.000000e+00
   endloop
 endfacet
 facet normal -9.941380e-01 -1.081190e-01  1.217194e-19
   outer loop
     vertex  9.766206e-01  2.149704e-01  1.300000e+01
     vertex  1.000000e+00 -2.449294e-16  0.000000e+00
     vertex  1.000000e+00 -2.449294e-16  1.300000e+01
   endloop
 endfacet
 facet normal -9.941380e-01 -1.081190e-01 -0.000000e+00
   outer loop
     vertex  9.766206e-01  2.149704e-01  1.300000e+01
     vertex  9.766206e-01  2.149704e-01  0.000000e+00
     vertex  1.000000e+00 -2.449294e-16  0.000000e+00
   endloop
 endfacet
 facet normal -9.476532e-01 -3.193015e-01 -0.000000e+00
   outer loop
     vertex  9.075754e-01  4.198891e-01  1.300000e+01
     vertex  9.075754e-01  4.198891e-01  0.000000e+00
     vertex  9.766206e-01  2.149704e-01  0.000000e+00
   endloop
 endfacet
 facet normal -9.476532e-01 -3.193015e-01  1.571505e-19
   outer loop
     vertex  9.075754e-01  4.198891e-01  1.300000e+01
     vertex  9.766206e-01  2.149704e-01  0.000000e+00
     vertex  9.766206e-01  2.149704e-01  1.300000e+01
   endloop
 endfacet
 facet normal -8.568572e-01 -5.155539e-01 -0.000000e+00
   outer loop
     vertex  7.960931e-01  6.051742e-01  1.300000e+01
     vertex  7.960931e-01  6.051742e-01  0.000000e+00
     vertex  9.075754e-01  4.198891e-01  0.000000e+00
   endloop
 endfacet
 facet normal -8.568572e-01 -5.155539e-01 -5.547999e-19
   outer loop
     vertex  7.960931e-01  6.051742e-01  1.300000e+01
     vertex  9.075754e-01  4.198891e-01  0.000000e+00
     vertex  9.075754e-01  4.198891e-01  1.300000e+01
   endloop
 endfacet
 facet normal -7.259955e-01 -6.876995e-01 -0.000000e+00
   outer loop
     vertex  6.473863e-01  7.621621e-01  1.300000e+01
     vertex  6.473863e-01  7.621621e-01  0.000000e+00
     vertex  7.960931e-01  6.051742e-01  0.000000e+00
   endloop
 endfacet
 facet normal -7.259955e-01 -6.876995e-01  3.935628e-19
   outer loop
     vertex  6.473863e-01  7.621621e-01  1.300000e+01
     vertex  7.960931e-01  6.051742e-01  0.000000e+00
     vertex  7.960931e-01  6.051742e-01  1.300000e+01
   endloop
 endfacet
 facet normal -5.611871e-01 -8.276890e-01 -0.000000e+00
   outer loop
     vertex  4.684084e-01  8.835120e-01  1.300000e+01
     vertex  4.684084e-01  8.835120e-01  0.000000e+00
     vertex  6.473863e-01  7.621621e-01  0.000000e+00
   endloop
 endfacet
 facet normal -3.701382e-01 -9.289767e-01 -0.000000e+00
   outer loop
     vertex  4.684084e-01  8.835120e-01  1.300000e+01
     vertex  2.675283e-01  9.635500e-01  0.000000e+00
     vertex  4.684084e-01  8.835120e-01  0.000000e+00
   endloop
 endfacet
 facet normal -5.611871e-01 -8.276890e-01  2.692589e-19
   outer loop
     vertex  4.684084e-01  8.835120e-01  1.300000e+01
     vertex  6.473863e-01  7.621621e-01  0.000000e+00
     vertex  6.473863e-01  7.621621e-01  1.300000e+01
   endloop
 endfacet
 facet normal -3.701382e-01 -9.289767e-01 -0.000000e+00
   outer loop
     vertex  2.675283e-01  9.635500e-01  1.300000e+01
     vertex  2.675283e-01  9.635500e-01  0.000000e+00
     vertex  4.684084e-01  8.835120e-01  1.300000e+01
   endloop
 endfacet
 facet normal -1.617820e-01 -9.868265e-01 -0.000000e+00
   outer loop
     vertex  5.413891e-02  9.985334e-01  1.300000e+01
     vertex  5.413891e-02  9.985334e-01  0.000000e+00
     vertex  2.675283e-01  9.635500e-01  0.000000e+00
   endloop
 endfacet
 facet normal  5.413891e-02 -9.985334e-01  0.000000e+00
   outer loop
     vertex  5.413891e-02  9.985334e-01  1.300000e+01
     vertex -1.617820e-01  9.868265e-01  0.000000e+00
     vertex  5.413891e-02  9.985334e-01  0.000000e+00
   endloop
 endfacet
 facet normal -1.617820e-01 -9.868265e-01  2.426428e-20
   outer loop
     vertex  5.413891e-02  9.985334e-01  1.300000e+01
     vertex  2.675283e-01  9.635500e-01  0.000000e+00
     vertex  2.675283e-01  9.635500e-01  1.300000e+01
   endloop
 endfacet
 facet normal  5.413891e-02 -9.985334e-01  0.000000e+00
   outer loop
     vertex -1.617820e-01  9.868265e-01  1.300000e+01
     vertex -1.617820e-01  9.868265e-01  0.000000e+00
     vertex  5.413891e-02  9.985334e-01  1.300000e+01
   endloop
 endfacet
 facet normal  2.675283e-01 -9.635500e-01  3.268200e-20
   outer loop
     vertex -3.701382e-01  9.289767e-01  1.300000e+01
     vertex -1.617820e-01  9.868265e-01  0.000000e+00
     vertex -1.617820e-01  9.868265e-01  1.300000e+01
   endloop
 endfacet
 facet normal  2.675283e-01 -9.635500e-01  0.000000e+00
   outer loop
     vertex -3.701382e-01  9.289767e-01  1.300000e+01
     vertex -3.701382e-01  9.289767e-01  0.000000e+00
     vertex -1.617820e-01  9.868265e-01  0.000000e+00
   endloop
 endfacet
 facet normal  4.684084e-01 -8.835120e-01  0.000000e+00
   outer loop
     vertex -3.701382e-01  9.289767e-01  1.300000e+01
     vertex -5.611871e-01  8.276890e-01  0.000000e+00
     vertex -3.701382e-01  9.289767e-01  0.000000e+00
   endloop
 endfacet
 facet normal  4.684084e-01 -8.835120e-01  0.000000e+00
   outer loop
     vertex -5.611871e-01  8.276890e-01  1.300000e+01
     vertex -5.611871e-01  8.276890e-01  0.000000e+00
     vertex -3.701382e-01  9.289767e-01  1.300000e+01
   endloop
 endfacet
 facet normal  6.473863e-01 -7.621621e-01  4.516226e-19
   outer loop
     vertex -7.259955e-01  6.876995e-01  1.300000e+01
     vertex -5.611871e-01  8.276890e-01  0.000000e+00
     vertex -5.611871e-01  8.276890e-01  1.300000e+01
   endloop
 endfacet
 facet normal  6.473863e-01 -7.621621e-01  0.000000e+00
   outer loop
     vertex -7.259955e-01  6.876995e-01  1.300000e+01
     vertex -7.259955e-01  6.876995e-01  0.000000e+00
     vertex -5.611871e-01  8.276890e-01  0.000000e+00
   endloop
 endfacet
 facet normal  7.960931e-01 -6.051742e-01  3.941367e-19
   outer loop
     vertex -8.568572e-01  5.155539e-01  1.300000e+01
     vertex -7.259955e-01  6.876995e-01  0.000000e+00
     vertex -7.259955e-01  6.876995e-01  1.300000e+01
   endloop
 endfacet
 facet normal  7.960931e-01 -6.051742e-01  0.000000e+00
   outer loop
     vertex -8.568572e-01  5.155539e-01  1.300000e+01
     vertex -8.568572e-01  5.155539e-01  0.000000e+00
     vertex -7.259955e-01  6.876995e-01  0.000000e+00
   endloop
 endfacet
 facet normal  9.075754e-01 -4.198891e-01  0.000000e+00
   outer loop
     vertex -8.568572e-01  5.155539e-01  1.300000e+01
     vertex -9.476532e-01  3.193015e-01  0.000000e+00
     vertex -8.568572e-01  5.155539e-01  0.000000e+00
   endloop
 endfacet
 facet normal  9.075754e-01 -4.198891e-01  0.000000e+00
   outer loop
     vertex -9.476532e-01  3.193015e-01  1.300000e+01
     vertex -9.476532e-01  3.193015e-01  0.000000e+00
     vertex -8.568572e-01  5.155539e-01  1.300000e+01
   endloop
 endfacet
 facet normal  9.766206e-01 -2.149704e-01 -1.805288e-19
   outer loop
     vertex -9.941380e-01  1.081190e-01  1.300000e+01
     vertex -9.476532e-01  3.193015e-01  0.000000e+00
     vertex -9.476532e-01  3.193015e-01  1.300000e+01
   endloop
 endfacet
 facet normal  9.766206e-01 -2.149704e-01  0.000000e+00
   outer loop
     vertex -9.941380e-01  1.081190e-01  1.300000e+01
     vertex -9.941380e-01  1.081190e-01  0.000000e+00
     vertex -9.476532e-01  3.193015e-01  0.000000e+00
   endloop
 endfacet
 facet normal  1.000000e+00  1.026853e-15  0.000000e+00
   outer loop
     vertex -9.941380e-01  1.081190e-01  1.300000e+01
     vertex -9.941380e-01 -1.081190e-01  0.000000e+00
     vertex -9.941380e-01  1.081190e-01  0.000000e+00
   endloop
 endfacet
 facet normal  1.000000e+00  1.026853e-15  0.000000e+00
   outer loop
     vertex -9.941380e-01 -1.081190e-01  1.300000e+01
     vertex -9.941380e-01 -1.081190e-01  0.000000e+00
     vertex -9.941380e-01  1.081190e-01  1.300000e+01
   endloop
 endfacet
 facet normal  9.766206e-01  2.149704e-01 -1.570504e-19
   outer loop
     vertex -9.476532e-01 -3.193015e-01  1.300000e+01
     vertex -9.941380e-01 -1.081190e-01  0.000000e+00
     vertex -9.941380e-01 -1.081190e-01  1.300000e+01
   endloop
 endfacet
 facet normal  9.766206e-01  2.149704e-01  0.000000e+00
   outer loop
     vertex -9.476532e-01 -3.193015e-01  1.300000e+01
     vertex -9.476532e-01 -3.193015e-01  0.000000e+00
     vertex -9.941380e-01 -1.081190e-01  0.000000e+00
   endloop
 endfacet
 facet normal  9.075754e-01  4.198891e-01 -4.964378e-19
   outer loop
     vertex -8.568572e-01 -5.155539e-01  1.300000e+01
     vertex -9.476532e-01 -3.193015e-01  0.000000e+00
     vertex -9.476532e-01 -3.193015e-01  1.300000e+01
   endloop
 endfacet
 facet normal  9.075754e-01  4.198891e-01  0.000000e+00
   outer loop
     vertex -8.568572e-01 -5.155539e-01  1.300000e+01
     vertex -8.568572e-01 -5.155539e-01  0.000000e+00
     vertex -9.476532e-01 -3.193015e-01  0.000000e+00
   endloop
 endfacet
 facet normal  7.960931e-01  6.051742e-01 -5.802908e-19
   outer loop
     vertex -7.259955e-01 -6.876995e-01  1.300000e+01
     vertex -8.568572e-01 -5.155539e-01  0.000000e+00
     vertex -8.568572e-01 -5.155539e-01  1.300000e+01
   endloop
 endfacet
 facet normal  7.960931e-01  6.051742e-01  0.000000e+00
   outer loop
     vertex -7.259955e-01 -6.876995e-01  1.300000e+01
     vertex -7.259955e-01 -6.876995e-01  0.000000e+00
     vertex -8.568572e-01 -5.155539e-01  0.000000e+00
   endloop
 endfacet
 facet normal  6.473863e-01  7.621621e-01 -4.596796e-20
   outer loop
     vertex -5.611871e-01 -8.276890e-01  1.300000e+01
     vertex -7.259955e-01 -6.876995e-01  0.000000e+00
     vertex -7.259955e-01 -6.876995e-01  1.300000e+01
   endloop
 endfacet
 facet normal  6.473863e-01  7.621621e-01  0.000000e+00
   outer loop
     vertex -5.611871e-01 -8.276890e-01  1.300000e+01
     vertex -5.611871e-01 -8.276890e-01  0.000000e+00
     vertex -7.259955e-01 -6.876995e-01  0.000000e+00
   endloop
 endfacet
 facet normal  4.684084e-01  8.835120e-01  5.021095e-19
   outer loop
     vertex -3.701382e-01 -9.289767e-01  1.300000e+01
     vertex -5.611871e-01 -8.276890e-01  0.000000e+00
     vertex -5.611871e-01 -8.276890e-01  1.300000e+01
   endloop
 endfacet
 facet normal  4.684084e-01  8.835120e-01  0.000000e+00
   outer loop
     vertex -3.701382e-01 -9.289767e-01  1.300000e+01
     vertex -3.701382e-01 -9.289767e-01  0.000000e+00
     vertex -5.611871e-01 -8.276890e-01  0.000000e+00
   endloop
 endfacet
 facet normal  2.675283e-01  9.635500e-01  1.077648e-19
   outer loop
     vertex -1.617820e-01 -9.868265e-01  1.300000e+01
     vertex -3.701382e-01 -9.289767e-01  0.000000e+00
     vertex -3.701382e-01 -9.289767e-01  1.300000e+01
   endloop
 endfacet
 facet normal  2.675283e-01  9.635500e-01  0.000000e+00
   outer loop
     vertex -1.617820e-01 -9.868265e-01  1.300000e+01
     vertex -1.617820e-01 -9.868265e-01  0.000000e+00
     vertex -3.701382e-01 -9.289767e-01  0.000000e+00
   endloop
 endfacet
 facet normal  5.413891e-02  9.985334e-01  0.000000e+00
   outer loop
     vertex -1.617820e-01 -9.868265e-01  1.300000e+01
     vertex  5.413891e-02 -9.985334e-01  0.000000e+00
     vertex -1.617820e-01 -9.868265e-01  0.000000e+00
   endloop
 endfacet
 facet normal  5.413891e-02  9.985334e-01  0.000000e+00
   outer loop
     vertex  5.413891e-02 -9.985334e-01  1.300000e+01
     vertex  5.413891e-02 -9.985334e-01  0.000000e+00
     vertex -1.617820e-01 -9.868265e-01  1.300000e+01
   endloop
 endfacet
 facet normal -1.617820e-01  9.868265e-01  0.000000e+00
   outer loop
     vertex  2.675283e-01 -9.635500e-01  1.300000e+01
     vertex  2.675283e-01 -9.635500e-01  0.000000e+00
     vertex  5.413891e-02 -9.985334e-01  0.000000e+00
   endloop
 endfacet
 facet normal -1.617820e-01  9.868265e-01 -7.916399e-20
   outer loop
     vertex  2.675283e-01 -9.635500e-01  1.300000e+01
     vertex  5.413891e-02 -9.985334e-01  0.000000e+00
     vertex  5.413891e-02 -9.985334e-01  1.300000e+01
   endloop
 endfacet
 facet normal -3.701382e-01  9.289767e-01  0.000000e+00
   outer loop
     vertex  4.684084e-01 -8.835120e-01  1.300000e+01
     vertex  4.684084e-01 -8.835120e-01  0.000000e+00
     vertex  2.675283e-01 -9.635500e-01  0.000000e+00
   endloop
 endfacet
 facet normal -5.611871e-01  8.276890e-01  0.000000e+00
   outer loop
     vertex  4.684084e-01 -8.835120e-01  1.300000e+01
     vertex  6.473863e-01 -7.621621e-01  0.000000e+00
     vertex  4.684084e-01 -8.835120e-01  0.000000e+00
   endloop
 endfacet
 facet normal -3.701382e-01  9.289767e-01 -5.813105e-19
   outer loop
     vertex  4.684084e-01 -8.835120e-01  1.300000e+01
     vertex  2.675283e-01 -9.635500e-01  0.000000e+00
     vertex  2.675283e-01 -9.635500e-01  1.300000e+01
   endloop
 endfacet
 facet normal -5.611871e-01  8.276890e-01  0.000000e+00
   outer loop
     vertex  6.473863e-01 -7.621621e-01  1.300000e+01
     vertex  6.473863e-01 -7.621621e-01  0.000000e+00
     vertex  4.684084e-01 -8.835120e-01  1.300000e+01
   endloop
 endfacet
 facet normal -7.259955e-01  6.876995e-01  0.000000e+00
   outer loop
     vertex  7.960931e-01 -6.051742e-01  1.300000e+01
     vertex  7.960931e-01 -6.051742e-01  0.000000e+00
     vertex  6.473863e-01 -7.621621e-01  0.000000e+00
   endloop
 endfacet
 facet normal -7.259955e-01  6.876995e-01  1.865253e-19
   outer loop
     vertex  7.960931e-01 -6.051742e-01  1.300000e+01
     vertex  6.473863e-01 -7.621621e-01  0.000000e+00
     vertex  6.473863e-01 -7.621621e-01  1.300000e+01
   endloop
 endfacet
 facet normal -8.568572e-01  5.155539e-01  0.000000e+00
   outer loop
     vertex  9.075754e-01 -4.198891e-01  1.300000e+01
     vertex  9.075754e-01 -4.198891e-01  0.000000e+00
     vertex  7.960931e-01 -6.051742e-01  0.000000e+00
   endloop
 endfacet
 facet normal -8.568572e-01  5.155539e-01  5.417972e-19
   outer loop
     vertex  9.075754e-01 -4.198891e-01  1.300000e+01
     vertex  7.960931e-01 -6.051742e-01  0.000000e+00
     vertex  7.960931e-01 -6.051742e-01  1.300000e+01
   endloop
 endfacet
 facet normal -9.476532e-01  3.193015e-01  0.000000e+00
   outer loop
     vertex  9.766206e-01 -2.149704e-01  1.300000e+01
     vertex  9.766206e-01 -2.149704e-01  0.000000e+00
     vertex  9.075754e-01 -4.198891e-01  0.000000e+00
   endloop
 endfacet
 facet normal -9.941380e-01  1.081190e-01  0.000000e+00
   outer loop
     vertex  9.766206e-01 -2.149704e-01  1.300000e+01
     vertex  1.000000e+00 -2.449294e-16  0.000000e+00
     vertex  9.766206e-01 -2.149704e-01  0.000000e+00
   endloop
 endfacet
 facet normal -9.476532e-01  3.193015e-01 -4.654912e-20
   outer loop
     vertex  9.766206e-01 -2.149704e-01  1.300000e+01
     vertex  9.075754e-01 -4.198891e-01  0.000000e+00
     vertex  9.075754e-01 -4.198891e-01  1.300000e+01
   endloop
 endfacet
 facet normal -9.941380e-01  1.081190e-01  0.000000e+00
   outer loop
     vertex  1.000000e+00 -2.449294e-16  1.300000e+01
     vertex  1.000000e+00 -2.449294e-16  0.000000e+00
     vertex  9.766206e-01 -2.149704e-01  1.300000e+01
   endloop
 endfacet
 facet normal  9.941380e-01  1.081190e-01  6.223323e-19
   outer loop
     vertex  2.441551e+00  5.374261e-01  1.300000e+01
     vertex  2.500000e+00 -6.123234e-16  1.300000e+01
     vertex  2.500000e+00 -6.123234e-16  3.000000e+00
   endloop
 endfacet
 facet normal  9.941380e-01  1.081190e-01  0.000000e+00
   outer loop
     vertex  2.441551e+00  5.374261e-01  1.300000e+01
     vertex  2.500000e+00 -6.123234e-16  3.000000e+00
     vertex  2.441551e+00  5.374261e-01  3.000000e+00
   endloop
 endfacet
 facet normal  9.476532e-01  3.193015e-01  0.000000e+00
   outer loop
     vertex  2.268939e+00  1.049723e+00  1.300000e+01
     vertex  2.441551e+00  5.374261e-01  3.000000e+00
     vertex  2.268939e+00  1.049723e+00  3.000000e+00
   endloop
 endfacet
 facet normal  9.476532e-01  3.193015e-01  1.033830e-18
   outer loop
     vertex  2.268939e+00  1.049723e+00  1.300000e+01
     vertex  2.441551e+00  5.374261e-01  1.300000e+01
     vertex  2.441551e+00  5.374261e-01  3.000000e+00
   endloop
 endfacet
 facet normal  8.568572e-01  5.155539e-01  0.000000e+00
   outer loop
     vertex  1.990233e+00  1.512936e+00  1.300000e+01
     vertex  2.268939e+00  1.049723e+00  3.000000e+00
     vertex  1.990233e+00  1.512936e+00  3.000000e+00
   endloop
 endfacet
 facet normal  8.568572e-01  5.155539e-01  2.419827e-18
   outer loop
     vertex  1.990233e+00  1.512936e+00  1.300000e+01
     vertex  2.268939e+00  1.049723e+00  1.300000e+01
     vertex  2.268939e+00  1.049723e+00  3.000000e+00
   endloop
 endfacet
 facet normal  7.259955e-01  6.876995e-01  0.000000e+00
   outer loop
     vertex  1.618466e+00  1.905405e+00  1.300000e+01
     vertex  1.990233e+00  1.512936e+00  3.000000e+00
     vertex  1.618466e+00  1.905405e+00  3.000000e+00
   endloop
 endfacet
 facet normal  7.259955e-01  6.876995e-01  1.472491e-19
   outer loop
     vertex  1.618466e+00  1.905405e+00  1.300000e+01
     vertex  1.990233e+00  1.512936e+00  1.300000e+01
     vertex  1.990233e+00  1.512936e+00  3.000000e+00
   endloop
 endfacet
 facet normal  5.611871e-01  8.276890e-01  0.000000e+00
   outer loop
     vertex  1.171021e+00  2.208780e+00  1.300000e+01
     vertex  1.618466e+00  1.905405e+00  3.000000e+00
     vertex  1.171021e+00  2.208780e+00  3.000000e+00
   endloop
 endfacet
 facet normal  5.611871e-01  8.276890e-01  4.167123e-19
   outer loop
     vertex  1.171021e+00  2.208780e+00  1.300000e+01
     vertex  1.618466e+00  1.905405e+00  1.300000e+01
     vertex  1.618466e+00  1.905405e+00  3.000000e+00
   endloop
 endfacet
 facet normal  3.701382e-01  9.289767e-01  0.000000e+00
   outer loop
     vertex  6.688208e-01  2.408875e+00  1.300000e+01
     vertex  1.171021e+00  2.208780e+00  3.000000e+00
     vertex  6.688208e-01  2.408875e+00  3.000000e+00
   endloop
 endfacet
 facet normal  3.701382e-01  9.289767e-01  1.156313e-18
   outer loop
     vertex  6.688208e-01  2.408875e+00  1.300000e+01
     vertex  1.171021e+00  2.208780e+00  1.300000e+01
     vertex  1.171021e+00  2.208780e+00  3.000000e+00
   endloop
 endfacet
 facet normal  1.617820e-01  9.868265e-01  0.000000e+00
   outer loop
     vertex  1.353473e-01  2.496334e+00  1.300000e+01
     vertex  6.688208e-01  2.408875e+00  3.000000e+00
     vertex  1.353473e-01  2.496334e+00  3.000000e+00
   endloop
 endfacet
 facet normal  1.617820e-01  9.868265e-01 -4.581451e-19
   outer loop
     vertex  1.353473e-01  2.496334e+00  1.300000e+01
     vertex  6.688208e-01  2.408875e+00  1.300000e+01
     vertex  6.688208e-01  2.408875e+00  3.000000e+00
   endloop
 endfacet
 facet normal -5.413891e-02  9.985334e-01  0.000000e+00
   outer loop
     vertex -4.044550e-01  2.467066e+00  1.300000e+01
     vertex  1.353473e-01  2.496334e+00  3.000000e+00
     vertex -4.044550e-01  2.467066e+00  3.000000e+00
   endloop
 endfacet
 facet normal -5.413891e-02  9.985334e-01 -1.997120e-19
   outer loop
     vertex -4.044550e-01  2.467066e+00  1.300000e+01
     vertex  1.353473e-01  2.496334e+00  1.300000e+01
     vertex  1.353473e-01  2.496334e+00  3.000000e+00
   endloop
 endfacet
 facet normal -2.675283e-01  9.635500e-01 -2.536554e-19
   outer loop
     vertex -9.253454e-01  2.322442e+00  1.300000e+01
     vertex -4.044550e-01  2.467066e+00  1.300000e+01
     vertex -4.044550e-01  2.467066e+00  3.000000e+00
   endloop
 endfacet
 facet normal -2.675283e-01  9.635500e-01  0.000000e+00
   outer loop
     vertex -9.253454e-01  2.322442e+00  1.300000e+01
     vertex -4.044550e-01  2.467066e+00  3.000000e+00
     vertex -9.253454e-01  2.322442e+00  3.000000e+00
   endloop
 endfacet
 facet normal -4.684084e-01  8.835120e-01  4.865692e-19
   outer loop
     vertex -1.402968e+00  2.069222e+00  1.300000e+01
     vertex -9.253454e-01  2.322442e+00  1.300000e+01
     vertex -9.253454e-01  2.322442e+00  3.000000e+00
   endloop
 endfacet
 facet normal -4.684084e-01  8.835120e-01  0.000000e+00
   outer loop
     vertex -1.402968e+00  2.069222e+00  1.300000e+01
     vertex -9.253454e-01  2.322442e+00  3.000000e+00
     vertex -1.402968e+00  2.069222e+00  3.000000e+00
   endloop
 endfacet
 facet normal -6.473863e-01  7.621621e-01  0.000000e+00
   outer loop
     vertex -1.402968e+00  2.069222e+00  1.300000e+01
     vertex -1.402968e+00  2.069222e+00  3.000000e+00
     vertex -1.814989e+00  1.719249e+00  3.000000e+00
   endloop
 endfacet
 facet normal -6.473863e-01  7.621621e-01  0.000000e+00
   outer loop
     vertex -1.814989e+00  1.719249e+00  1.300000e+01
     vertex -1.402968e+00  2.069222e+00  1.300000e+01
     vertex -1.814989e+00  1.719249e+00  3.000000e+00
   endloop
 endfacet
 facet normal -7.960931e-01  6.051742e-01  1.400060e-19
   outer loop
     vertex -2.142143e+00  1.288885e+00  1.300000e+01
     vertex -1.814989e+00  1.719249e+00  1.300000e+01
     vertex -1.814989e+00  1.719249e+00  3.000000e+00
   endloop
 endfacet
 facet normal -7.960931e-01  6.051742e-01  0.000000e+00
   outer loop
     vertex -2.142143e+00  1.288885e+00  1.300000e+01
     vertex -1.814989e+00  1.719249e+00  3.000000e+00
     vertex -2.142143e+00  1.288885e+00  3.000000e+00
   endloop
 endfacet
 facet normal -9.075754e-01  4.198891e-01  1.283968e-19
   outer loop
     vertex -2.369133e+00  7.982538e-01  1.300000e+01
     vertex -2.142143e+00  1.288885e+00  1.300000e+01
     vertex -2.142143e+00  1.288885e+00  3.000000e+00
   endloop
 endfacet
 facet normal -9.075754e-01  4.198891e-01  0.000000e+00
   outer loop
     vertex -2.369133e+00  7.982538e-01  1.300000e+01
     vertex -2.142143e+00  1.288885e+00  3.000000e+00
     vertex -2.369133e+00  7.982538e-01  3.000000e+00
   endloop
 endfacet
 facet normal -9.766206e-01  2.149704e-01  4.825453e-19
   outer loop
     vertex -2.485345e+00  2.702975e-01  1.300000e+01
     vertex -2.369133e+00  7.982538e-01  1.300000e+01
     vertex -2.369133e+00  7.982538e-01  3.000000e+00
   endloop
 endfacet
 facet normal -9.766206e-01  2.149704e-01  0.000000e+00
   outer loop
     vertex -2.485345e+00  2.702975e-01  1.300000e+01
     vertex -2.369133e+00  7.982538e-01  3.000000e+00
     vertex -2.485345e+00  2.702975e-01  3.000000e+00
   endloop
 endfacet
 facet normal -1.000000e+00 -1.642964e-15  0.000000e+00
   outer loop
     vertex -2.485345e+00 -2.702975e-01  1.300000e+01
     vertex -2.485345e+00  2.702975e-01  1.300000e+01
     vertex -2.485345e+00  2.702975e-01  3.000000e+00
   endloop
 endfacet
 facet normal -1.000000e+00 -1.642964e-15 -0.000000e+00
   outer loop
     vertex -2.485345e+00 -2.702975e-01  1.300000e+01
     vertex -2.485345e+00  2.702975e-01  3.000000e+00
     vertex -2.485345e+00 -2.702975e-01  3.000000e+00
   endloop
 endfacet
 facet normal -9.766206e-01 -2.149704e-01 -0.000000e+00
   outer loop
     vertex -2.485345e+00 -2.702975e-01  1.300000e+01
     vertex -2.485345e+00 -2.702975e-01  3.000000e+00
     vertex -2.369133e+00 -7.982538e-01  3.000000e+00
   endloop
 endfacet
 facet normal -9.766206e-01 -2.149704e-01 -0.000000e+00
   outer loop
     vertex -2.369133e+00 -7.982538e-01  1.300000e+01
     vertex -2.485345e+00 -2.702975e-01  1.300000e+01
     vertex -2.369133e+00 -7.982538e-01  3.000000e+00
   endloop
 endfacet
 facet normal -9.075754e-01 -4.198891e-01  8.456072e-19
   outer loop
     vertex -2.142143e+00 -1.288885e+00  1.300000e+01
     vertex -2.369133e+00 -7.982538e-01  1.300000e+01
     vertex -2.369133e+00 -7.982538e-01  3.000000e+00
   endloop
 endfacet
 facet normal -9.075754e-01 -4.198891e-01 -0.000000e+00
   outer loop
     vertex -2.142143e+00 -1.288885e+00  1.300000e+01
     vertex -2.369133e+00 -7.982538e-01  3.000000e+00
     vertex -2.142143e+00 -1.288885e+00  3.000000e+00
   endloop
 endfacet
 facet normal -7.960931e-01 -6.051742e-01 -3.779720e-20
   outer loop
     vertex -1.814989e+00 -1.719249e+00  1.300000e+01
     vertex -2.142143e+00 -1.288885e+00  1.300000e+01
     vertex -2.142143e+00 -1.288885e+00  3.000000e+00
   endloop
 endfacet
 facet normal -7.960931e-01 -6.051742e-01 -0.000000e+00
   outer loop
     vertex -1.814989e+00 -1.719249e+00  1.300000e+01
     vertex -2.142143e+00 -1.288885e+00  3.000000e+00
     vertex -1.814989e+00 -1.719249e+00  3.000000e+00
   endloop
 endfacet
 facet normal -6.473863e-01 -7.621621e-01 -0.000000e+00
   outer loop
     vertex -1.814989e+00 -1.719249e+00  1.300000e+01
     vertex -1.814989e+00 -1.719249e+00  3.000000e+00
     vertex -1.402968e+00 -2.069222e+00  3.000000e+00
   endloop
 endfacet
 facet normal -6.473863e-01 -7.621621e-01 -0.000000e+00
   outer loop
     vertex -1.402968e+00 -2.069222e+00  1.300000e+01
     vertex -1.814989e+00 -1.719249e+00  1.300000e+01
     vertex -1.402968e+00 -2.069222e+00  3.000000e+00
   endloop
 endfacet
 facet normal -4.684084e-01 -8.835120e-01  1.100423e-19
   outer loop
     vertex -9.253454e-01 -2.322442e+00  1.300000e+01
     vertex -1.402968e+00 -2.069222e+00  1.300000e+01
     vertex -1.402968e+00 -2.069222e+00  3.000000e+00
   endloop
 endfacet
 facet normal -4.684084e-01 -8.835120e-01 -0.000000e+00
   outer loop
     vertex -9.253454e-01 -2.322442e+00  1.300000e+01
     vertex -1.402968e+00 -2.069222e+00  3.000000e+00
     vertex -9.253454e-01 -2.322442e+00  3.000000e+00
   endloop
 endfacet
 facet normal -2.675283e-01 -9.635500e-01  1.163705e-18
   outer loop
     vertex -4.044550e-01 -2.467066e+00  1.300000e+01
     vertex -9.253454e-01 -2.322442e+00  1.300000e+01
     vertex -9.253454e-01 -2.322442e+00  3.000000e+00
   endloop
 endfacet
 facet normal -2.675283e-01 -9.635500e-01 -0.000000e+00
   outer loop
     vertex -4.044550e-01 -2.467066e+00  1.300000e+01
     vertex -9.253454e-01 -2.322442e+00  3.000000e+00
     vertex -4.044550e-01 -2.467066e+00  3.000000e+00
   endloop
 endfacet
 facet normal -5.413891e-02 -9.985334e-01  2.604822e-19
   outer loop
     vertex  1.353473e-01 -2.496334e+00  1.300000e+01
     vertex -4.044550e-01 -2.467066e+00  1.300000e+01
     vertex -4.044550e-01 -2.467066e+00  3.000000e+00
   endloop
 endfacet
 facet normal -5.413891e-02 -9.985334e-01 -0.000000e+00
   outer loop
     vertex  1.353473e-01 -2.496334e+00  1.300000e+01
     vertex -4.044550e-01 -2.467066e+00  3.000000e+00
     vertex  1.353473e-01 -2.496334e+00  3.000000e+00
   endloop
 endfacet
 facet normal  1.617820e-01 -9.868265e-01  0.000000e+00
   outer loop
     vertex  6.688208e-01 -2.408875e+00  1.300000e+01
     vertex  1.353473e-01 -2.496334e+00  3.000000e+00
     vertex  6.688208e-01 -2.408875e+00  3.000000e+00
   endloop
 endfacet
 facet normal  1.617820e-01 -9.868265e-01 -4.600954e-19
   outer loop
     vertex  6.688208e-01 -2.408875e+00  1.300000e+01
     vertex  1.353473e-01 -2.496334e+00  1.300000e+01
     vertex  1.353473e-01 -2.496334e+00  3.000000e+00
   endloop
 endfacet
 facet normal  3.701382e-01 -9.289767e-01  0.000000e+00
   outer loop
     vertex  6.688208e-01 -2.408875e+00  1.300000e+01
     vertex  6.688208e-01 -2.408875e+00  3.000000e+00
     vertex  1.171021e+00 -2.208780e+00  3.000000e+00
   endloop
 endfacet
 facet normal  3.701382e-01 -9.289767e-01  0.000000e+00
   outer loop
     vertex  1.171021e+00 -2.208780e+00  1.300000e+01
     vertex  6.688208e-01 -2.408875e+00  1.300000e+01
     vertex  1.171021e+00 -2.208780e+00  3.000000e+00
   endloop
 endfacet
 facet normal  5.611871e-01 -8.276890e-01  0.000000e+00
   outer loop
     vertex  1.618466e+00 -1.905405e+00  1.300000e+01
     vertex  1.171021e+00 -2.208780e+00  3.000000e+00
     vertex  1.618466e+00 -1.905405e+00  3.000000e+00
   endloop
 endfacet
 facet normal  5.611871e-01 -8.276890e-01  2.558885e-18
   outer loop
     vertex  1.618466e+00 -1.905405e+00  1.300000e+01
     vertex  1.171021e+00 -2.208780e+00  1.300000e+01
     vertex  1.171021e+00 -2.208780e+00  3.000000e+00
   endloop
 endfacet
 facet normal  7.259955e-01 -6.876995e-01  0.000000e+00
   outer loop
     vertex  1.990233e+00 -1.512936e+00  1.300000e+01
     vertex  1.618466e+00 -1.905405e+00  3.000000e+00
     vertex  1.990233e+00 -1.512936e+00  3.000000e+00
   endloop
 endfacet
 facet normal  7.259955e-01 -6.876995e-01 -1.847935e-18
   outer loop
     vertex  1.990233e+00 -1.512936e+00  1.300000e+01
     vertex  1.618466e+00 -1.905405e+00  1.300000e+01
     vertex  1.618466e+00 -1.905405e+00  3.000000e+00
   endloop
 endfacet
 facet normal  8.568572e-01 -5.155539e-01  0.000000e+00
   outer loop
     vertex  2.268939e+00 -1.049723e+00  1.300000e+01
     vertex  1.990233e+00 -1.512936e+00  3.000000e+00
     vertex  2.268939e+00 -1.049723e+00  3.000000e+00
   endloop
 endfacet
 facet normal  8.568572e-01 -5.155539e-01 -2.505883e-18
   outer loop
     vertex  2.268939e+00 -1.049723e+00  1.300000e+01
     vertex  1.990233e+00 -1.512936e+00  1.300000e+01
     vertex  1.990233e+00 -1.512936e+00  3.000000e+00
   endloop
 endfacet
 facet normal  9.476532e-01 -3.193015e-01  0.000000e+00
   outer loop
     vertex  2.441551e+00 -5.374261e-01  1.300000e+01
     vertex  2.268939e+00 -1.049723e+00  3.000000e+00
     vertex  2.441551e+00 -5.374261e-01  3.000000e+00
   endloop
 endfacet
 facet normal  9.941380e-01 -1.081190e-01  0.000000e+00
   outer loop
     vertex  2.441551e+00 -5.374261e-01  1.300000e+01
     vertex  2.441551e+00 -5.374261e-01  3.000000e+00
     vertex  2.500000e+00 -6.123234e-16  3.000000e+00
   endloop
 endfacet
 facet normal  9.476532e-01 -3.193015e-01  8.571836e-19
   outer loop
     vertex  2.441551e+00 -5.374261e-01  1.300000e+01
     vertex  2.268939e+00 -1.049723e+00  1.300000e+01
     vertex  2.268939e+00 -1.049723e+00  3.000000e+00
   endloop
 endfacet
 facet normal  9.941380e-01 -1.081190e-01  0.000000e+00
   outer loop
     vertex  2.500000e+00 -6.123234e-16  1.300000e+01
     vertex  2.441551e+00 -5.374261e-01  1.300000e+01
     vertex  2.500000e+00 -6.123234e-16  3.000000e+00
   endloop
 endfacet
 facet normal  0.000000e+00  0.000000e+00  1.000000e+00
   outer loop
     vertex -5.611871e-01 -8.276890e-01  1.300000e+01
     vertex -1.814989e+00 -1.719249e+00  1.300000e+01
     vertex -1.402968e+00 -2.069222e+00  1.300000e+01
   endloop
 endfacet
 facet normal  0.000000e+00  0.000000e+00  1.000000e+00
   outer loop
     vertex -5.611871e-01 -8.276890e-01  1.300000e+01
     vertex -7.259955e-01 -6.876995e-01  1.300000e+01
     vertex -1.814989e+00 -1.719249e+00  1.300000e+01
   endloop
 endfacet
 facet normal  0.000000e+00  0.000000e+00  1.000000e+00
   outer loop
     vertex -8.568572e-01 -5.155539e-01  1.300000e+01
     vertex -2.142143e+00 -1.288885e+00  1.300000e+01
     vertex -1.814989e+00 -1.719249e+00  1.300000e+01
   endloop
 endfacet
 facet normal  0.000000e+00  0.000000e+00  1.000000e+00
   outer loop
     vertex -8.568572e-01 -5.155539e-01  1.300000e+01
     vertex -1.814989e+00 -1.719249e+00  1.300000e+01
     vertex -7.259955e-01 -6.876995e-01  1.300000e+01
   endloop
 endfacet
 facet normal  0.000000e+00  0.000000e+00  1.000000e+00
   outer loop
     vertex -3.701382e-01 -9.289767e-01  1.300000e+01
     vertex -1.402968e+00 -2.069222e+00  1.300000e+01
     vertex -9.253454e-01 -2.322442e+00  1.300000e+01
   endloop
 endfacet
 facet normal  0.000000e+00  0.000000e+00  1.000000e+00
   outer loop
     vertex -3.701382e-01 -9.289767e-01  1.300000e+01
     vertex -5.611871e-01 -8.276890e-01  1.300000e+01
     vertex -1.402968e+00 -2.069222e+00  1.300000e+01
   endloop
 endfacet
 facet normal  0.000000e+00  0.000000e+00  1.000000e+00
   outer loop
     vertex -9.476532e-01 -3.193015e-01  1.300000e+01
     vertex -2.369133e+00 -7.982538e-01  1.300000e+01
     vertex -2.142143e+00 -1.288885e+00  1.300000e+01
   endloop
 endfacet
 facet normal  0.000000e+00  0.000000e+00  1.000000e+00
   outer loop
     vertex -9.476532e-01 -3.193015e-01  1.300000e+01
     vertex -2.142143e+00 -1.288885e+00  1.300000e+01
     vertex -8.568572e-01 -5.155539e-01  1.300000e+01
   endloop
 endfacet
 facet normal  0.000000e+00  0.000000e+00  1.000000e+00
   outer loop
     vertex -1.617820e-01 -9.868265e-01  1.300000e+01
     vertex -9.253454e-01 -2.322442e+00  1.300000e+01
     vertex -4.044550e-01 -2.467066e+00  1.300000e+01
   endloop
 endfacet
 facet normal  0.000000e+00  0.000000e+00  1.000000e+00
   outer loop
     vertex -1.617820e-01 -9.868265e-01  1.300000e+01
     vertex -3.701382e-01 -9.289767e-01  1.300000e+01
     vertex -9.253454e-01 -2.322442e+00  1.300000e+01
   endloop
 endfacet
 facet normal  0.000000e+00  0.000000e+00  1.000000e+00
   outer loop
     vertex -9.941380e-01 -1.081190e-01  1.300000e+01
     vertex -2.485345e+00 -2.702975e-01  1.300000e+01
     vertex -2.369133e+00 -7.982538e-01  1.300000e+01
   endloop
 endfacet
 facet normal  0.000000e+00  0.000000e+00  1.000000e+00
   outer loop
     vertex -9.941380e-01 -1.081190e-01  1.300000e+01
     vertex -2.369133e+00 -7.982538e-01  1.300000e+01
     vertex -9.476532e-01 -3.193015e-01  1.300000e+01
   endloop
 endfacet
 facet normal  0.000000e+00  0.000000e+00  1.000000e+00
   outer loop
     vertex  5.413891e-02 -9.985334e-01  1.300000e+01
     vertex -4.044550e-01 -2.467066e+00  1.300000e+01
     vertex  1.353473e-01 -2.496334e+00  1.300000e+01
   endloop
 endfacet
 facet normal  0.000000e+00  0.000000e+00  1.000000e+00
   outer loop
     vertex  5.413891e-02 -9.985334e-01  1.300000e+01
     vertex -1.617820e-01 -9.868265e-01  1.300000e+01
     vertex -4.044550e-01 -2.467066e+00  1.300000e+01
   endloop
 endfacet
 facet normal  0.000000e+00  0.000000e+00  1.000000e+00
   outer loop
     vertex -9.941380e-01  1.081190e-01  1.300000e+01
     vertex -2.485345e+00  2.702975e-01  1.300000e+01
     vertex -2.485345e+00 -2.702975e-01  1.300000e+01
   endloop
 endfacet
 facet normal  0.000000e+00  0.000000e+00  1.000000e+00
   outer loop
     vertex -9.941380e-01  1.081190e-01  1.300000e+01
     vertex -2.485345e+00 -2.702975e-01  1.300000e+01
     vertex -9.941380e-01 -1.081190e-01  1.300000e+01
   endloop
 endfacet
 facet normal  0.000000e+00  0.000000e+00  1.000000e+00
   outer loop
     vertex  2.675283e-01 -9.635500e-01  1.300000e+01
     vertex  1.353473e-01 -2.496334e+00  1.300000e+01
     vertex  6.688208e-01 -2.408875e+00  1.300000e+01
   endloop
 endfacet
 facet normal  0.000000e+00  0.000000e+00  1.000000e+00
   outer loop
     vertex  2.675283e-01 -9.635500e-01  1.300000e+01
     vertex  5.413891e-02 -9.985334e-01  1.300000e+01
     vertex  1.353473e-01 -2.496334e+00  1.300000e+01
   endloop
 endfacet
 facet normal  0.000000e+00  0.000000e+00  1.000000e+00
   outer loop
     vertex -9.476532e-01  3.193015e-01  1.300000e+01
     vertex -2.369133e+00  7.982538e-01  1.300000e+01
     vertex -2.485345e+00  2.702975e-01  1.300000e+01
   endloop
 endfacet
 facet normal  0.000000e+00  0.000000e+00  1.000000e+00
   outer loop
     vertex -9.476532e-01  3.193015e-01  1.300000e+01
     vertex -2.485345e+00  2.702975e-01  1.300000e+01
     vertex -9.941380e-01  1.081190e-01  1.300000e+01
   endloop
 endfacet
 facet normal  0.000000e+00  0.000000e+00  1.000000e+00
   outer loop
     vertex  4.684084e-01 -8.835120e-01  1.300000e+01
     vertex  6.688208e-01 -2.408875e+00  1.300000e+01
     vertex  1.171021e+00 -2.208780e+00  1.300000e+01
   endloop
 endfacet
 facet normal  0.000000e+00  0.000000e+00  1.000000e+00
   outer loop
     vertex  4.684084e-01 -8.835120e-01  1.300000e+01
     vertex  2.675283e-01 -9.635500e-01  1.300000e+01
     vertex  6.688208e-01 -2.408875e+00  1.300000e+01
   endloop
 endfacet
 facet normal  0.000000e+00  0.000000e+00  1.000000e+00
   outer loop
     vertex -8.568572e-01  5.155539e-01  1.300000e+01
     vertex -2.142143e+00  1.288885e+00  1.300000e+01
     vertex -2.369133e+00  7.982538e-01  1.300000e+01
   endloop
 endfacet
 facet normal  0.000000e+00  0.000000e+00  1.000000e+00
   outer loop
     vertex -8.568572e-01  5.155539e-01  1.300000e+01
     vertex -2.369133e+00  7.982538e-01  1.300000e+01
     vertex -9.476532e-01  3.193015e-01  1.300000e+01
   endloop
 endfacet
 facet normal  0.000000e+00  0.000000e+00  1.000000e+00
   outer loop
     vertex  6.473863e-01 -7.621621e-01  1.300000e+01
     vertex  4.684084e-01 -8.835120e-01  1.300000e+01
     vertex  1.171021e+00 -2.208780e+00  1.300000e+01
   endloop
 endfacet
 facet normal  0.000000e+00  0.000000e+00  1.000000e+00
   outer loop
     vertex  6.473863e-01 -7.621621e-01  1.300000e+01
     vertex  1.171021e+00 -2.208780e+00  1.300000e+01
     vertex  1.618466e+00 -1.905405e+00  1.300000e+01
   endloop
 endfacet
 facet normal  0.000000e+00  0.000000e+00  1.000000e+00
   outer loop
     vertex -7.259955e-01  6.876995e-01  1.300000e+01
     vertex -1.814989e+00  1.719249e+00  1.300000e+01
     vertex -2.142143e+00  1.288885e+00  1.300000e+01
   endloop
 endfacet
 facet normal  0.000000e+00  0.000000e+00  1.000000e+00
   outer loop
     vertex -7.259955e-01  6.876995e-01  1.300000e+01
     vertex -2.142143e+00  1.288885e+00  1.300000e+01
     vertex -8.568572e-01  5.155539e-01  1.300000e+01
   endloop
 endfacet
 facet normal  0.000000e+00  0.000000e+00  1.000000e+00
   outer loop
     vertex  1.990233e+00 -1.512936e+00  1.300000e+01
     vertex  6.473863e-01 -7.621621e-01  1.300000e+01
     vertex  1.618466e+00 -1.905405e+00  1.300000e+01
   endloop
 endfacet
 facet normal  0.000000e+00  0.000000e+00  1.000000e+00
   outer loop
     vertex  1.990233e+00 -1.512936e+00  1.300000e+01
     vertex  7.960931e-01 -6.051742e-01  1.300000e+01
     vertex  6.473863e-01 -7.621621e-01  1.300000e+01
   endloop
 endfacet
 facet normal  0.000000e+00  0.000000e+00  1.000000e+00
   outer loop
     vertex -1.402968e+00  2.069222e+00  1.300000e+01
     vertex -1.814989e+00  1.719249e+00  1.300000e+01
     vertex -7.259955e-01  6.876995e-01  1.300000e+01
   endloop
 endfacet
 facet normal  0.000000e+00  0.000000e+00  1.000000e+00
   outer loop
     vertex -1.402968e+00  2.069222e+00  1.300000e+01
     vertex -5.611871e-01  8.276890e-01  1.300000e+01
     vertex -3.701382e-01  9.289767e-01  1.300000e+01
   endloop
 endfacet
 facet normal  0.000000e+00  0.000000e+00  1.000000e+00
   outer loop
     vertex -1.402968e+00  2.069222e+00  1.300000e+01
     vertex -7.259955e-01  6.876995e-01  1.300000e+01
     vertex -5.611871e-01  8.276890e-01  1.300000e+01
   endloop
 endfacet
 facet normal  0.000000e+00  0.000000e+00  1.000000e+00
   outer loop
     vertex  2.268939e+00 -1.049723e+00  1.300000e+01
     vertex  7.960931e-01 -6.051742e-01  1.300000e+01
     vertex  1.990233e+00 -1.512936e+00  1.300000e+01
   endloop
 endfacet
 facet normal  0.000000e+00  0.000000e+00  1.000000e+00
   outer loop
     vertex  2.268939e+00 -1.049723e+00  1.300000e+01
     vertex  9.075754e-01 -4.198891e-01  1.300000e+01
     vertex  7.960931e-01 -6.051742e-01  1.300000e+01
   endloop
 endfacet
 facet normal  0.000000e+00  0.000000e+00  1.000000e+00
   outer loop
     vertex -9.253454e-01  2.322442e+00  1.300000e+01
     vertex -1.402968e+00  2.069222e+00  1.300000e+01
     vertex -3.701382e-01  9.289767e-01  1.300000e+01
   endloop
 endfacet
 facet normal  0.000000e+00  0.000000e+00  1.000000e+00
   outer loop
     vertex  2.441551e+00 -5.374261e-01  1.300000e+01
     vertex  9.075754e-01 -4.198891e-01  1.300000e+01
     vertex  2.268939e+00 -1.049723e+00  1.300000e+01
   endloop
 endfacet
 facet normal  0.000000e+00  0.000000e+00  1.000000e+00
   outer loop
     vertex  2.441551e+00 -5.374261e-01  1.300000e+01
     vertex  9.766206e-01 -2.149704e-01  1.300000e+01
     vertex  9.075754e-01 -4.198891e-01  1.300000e+01
   endloop
 endfacet
 facet normal  0.000000e+00  0.000000e+00  1.000000e+00
   outer loop
     vertex -4.044550e-01  2.467066e+00  1.300000e+01
     vertex -1.617820e-01  9.868265e-01  1.300000e+01
     vertex  5.413891e-02  9.985334e-01  1.300000e+01
   endloop
 endfacet
 facet normal  0.000000e+00  0.000000e+00  1.000000e+00
   outer loop
     vertex -4.044550e-01  2.467066e+00  1.300000e+01
     vertex -3.701382e-01  9.289767e-01  1.300000e+01
     vertex -1.617820e-01  9.868265e-01  1.300000e+01
   endloop
 endfacet
 facet normal  0.000000e+00  0.000000e+00  1.000000e+00
   outer loop
     vertex -4.044550e-01  2.467066e+00  1.300000e+01
     vertex -9.253454e-01  2.322442e+00  1.300000e+01
     vertex -3.701382e-01  9.289767e-01  1.300000e+01
   endloop
 endfacet
 facet normal  0.000000e+00  0.000000e+00  1.000000e+00
   outer loop
     vertex  2.500000e+00 -6.123234e-16  1.300000e+01
     vertex  9.766206e-01  2.149704e-01  1.300000e+01
     vertex  1.000000e+00 -2.449294e-16  1.300000e+01
   endloop
 endfacet
 facet normal  0.000000e+00  0.000000e+00  1.000000e+00
   outer loop
     vertex  2.500000e+00 -6.123234e-16  1.300000e+01
     vertex  9.766206e-01 -2.149704e-01  1.300000e+01
     vertex  2.441551e+00 -5.374261e-01  1.300000e+01
   endloop
 endfacet
 facet normal  0.000000e+00  0.000000e+00  1.000000e+00
   outer loop
     vertex  2.500000e+00 -6.123234e-16  1.300000e+01
     vertex  1.000000e+00 -2.449294e-16  1.300000e+01
     vertex  9.766206e-01 -2.149704e-01  1.300000e+01
   endloop
 endfacet
 facet normal  0.000000e+00  0.000000e+00  1.000000e+00
   outer loop
     vertex  1.353473e-01  2.496334e+00  1.300000e+01
     vertex  5.413891e-02  9.985334e-01  1.300000e+01
     vertex  2.675283e-01  9.635500e-01  1.300000e+01
   endloop
 endfacet
 facet normal  0.000000e+00  0.000000e+00  1.000000e+00
   outer loop
     vertex  1.353473e-01  2.496334e+00  1.300000e+01
     vertex -4.044550e-01  2.467066e+00  1.300000e+01
     vertex  5.413891e-02  9.985334e-01  1.300000e+01
   endloop
 endfacet
 facet normal  0.000000e+00  0.000000e+00  1.000000e+00
   outer loop
     vertex  2.441551e+00  5.374261e-01  1.300000e+01
     vertex  9.766206e-01  2.149704e-01  1.300000e+01
     vertex  2.500000e+00 -6.123234e-16  1.300000e+01
   endloop
 endfacet
 facet normal  0.000000e+00  0.000000e+00  1.000000e+00
   outer loop
     vertex  2.441551e+00  5.374261e-01  1.300000e+01
     vertex  9.075754e-01  4.198891e-01  1.300000e+01
     vertex  9.766206e-01  2.149704e-01  1.300000e+01
   endloop
 endfacet
 facet normal  0.000000e+00  0.000000e+00  1.000000e+00
   outer loop
     vertex  6.688208e-01  2.408875e+00  1.300000e+01
     vertex  1.353473e-01  2.496334e+00  1.300000e+01
     vertex  2.675283e-01  9.635500e-01  1.300000e+01
   endloop
 endfacet
 facet normal  0.000000e+00  0.000000e+00  1.000000e+00
   outer loop
     vertex  2.268939e+00  1.049723e+00  1.300000e+01
     vertex  9.075754e-01  4.198891e-01  1.300000e+01
     vertex  2.441551e+00  5.374261e-01  1.300000e+01
   endloop
 endfacet
 facet normal  0.000000e+00  0.000000e+00  1.000000e+00
   outer loop
     vertex  1.171021e+00  2.208780e+00  1.300000e+01
     vertex  2.675283e-01  9.635500e-01  1.300000e+01
     vertex  4.684084e-01  8.835120e-01  1.300000e+01
   endloop
 endfacet
 facet normal  0.000000e+00  0.000000e+00  1.000000e+00
   outer loop
     vertex  1.171021e+00  2.208780e+00  1.300000e+01
     vertex  6.688208e-01  2.408875e+00  1.300000e+01
     vertex  2.675283e-01  9.635500e-01  1.300000e+01
   endloop
 endfacet
 facet normal  0.000000e+00  0.000000e+00  1.000000e+00
   outer loop
     vertex  1.990233e+00  1.512936e+00  1.300000e+01
     vertex  7.960931e-01  6.051742e-01  1.300000e+01
     vertex  9.075754e-01  4.198891e-01  1.300000e+01
   endloop
 endfacet
 facet normal  0.000000e+00  0.000000e+00  1.000000e+00
   outer loop
     vertex  1.990233e+00  1.512936e+00  1.300000e+01
     vertex  9.075754e-01  4.198891e-01  1.300000e+01
     vertex  2.268939e+00  1.049723e+00  1.300000e+01
   endloop
 endfacet
 facet normal  0.000000e+00  0.000000e+00  1.000000e+00
   outer loop
     vertex  1.618466e+00  1.905405e+00  1.300000e+01
     vertex  6.473863e-01  7.621621e-01  1.300000e+01
     vertex  7.960931e-01  6.051742e-01  1.300000e+01
   endloop
 endfacet
 facet normal  0.000000e+00  0.000000e+00  1.000000e+00
   outer loop
     vertex  1.618466e+00  1.905405e+00  1.300000e+01
     vertex  4.684084e-01  8.835120e-01  1.300000e+01
     vertex  6.473863e-01  7.621621e-01  1.300000e+01
   endloop
 endfacet
 facet normal  0.000000e+00  0.000000e+00  1.000000e+00
   outer loop
     vertex  1.618466e+00  1.905405e+00  1.300000e+01
     vertex  1.171021e+00  2.208780e+00  1.300000e+01
     vertex  4.684084e-01  8.835120e-01  1.300000e+01
   endloop
 endfacet
 facet normal  0.000000e+00  0.000000e+00  1.000000e+00
   outer loop
     vertex  1.618466e+00  1.905405e+00  1.300000e+01
     vertex  7.960931e-01  6.051742e-01  1.300000e+01
     vertex  1.990233e+00  1.512936e+00  1.300000e+01
   endloop
 endfacet
endsolid
