solid 
 facet normal -1.000000e+00  0.000000e+00  0.000000e+00
   outer loop
     vertex -4.000000e+00 -2.600000e+00  4.000000e+00
     vertex -4.000000e+00  2.600000e+00  0.000000e+00
     vertex -4.000000e+00 -2.600000e+00  0.000000e+00
   endloop
 endfacet
 facet normal -1.000000e+00  0.000000e+00  0.000000e+00
   outer loop
     vertex -4.000000e+00 -2.600000e+00  4.000000e+00
     vertex -4.000000e+00  2.600000e+00  4.000000e+00
     vertex -4.000000e+00  2.600000e+00  0.000000e+00
   endloop
 endfacet
 facet normal  0.000000e+00  0.000000e+00  1.000000e+00
   outer loop
     vertex -4.000000e+00 -2.600000e+00  4.000000e+00
     vertex -3.992314e+00 -2.678036e+00  4.000000e+00
     vertex -3.969552e+00 -2.753073e+00  4.000000e+00
   endloop
 endfacet
 facet normal  0.000000e+00  0.000000e+00  1.000000e+00
   outer loop
     vertex -4.000000e+00 -2.600000e+00  4.000000e+00
     vertex -3.969552e+00 -2.753073e+00  4.000000e+00
     vertex -3.932588e+00 -2.822228e+00  4.000000e+00
   endloop
 endfacet
 facet normal  0.000000e+00  0.000000e+00  1.000000e+00
   outer loop
     vertex -4.000000e+00 -2.600000e+00  4.000000e+00
     vertex -3.932588e+00 -2.822228e+00  4.000000e+00
     vertex -3.882843e+00 -2.882843e+00  4.000000e+00
   endloop
 endfacet
 facet normal  0.000000e+00  0.000000e+00  1.000000e+00
   outer loop
     vertex -3.600000e+00 -3.000000e+00  4.000000e+00
     vertex -3.882843e+00 -2.882843e+00  4.000000e+00
     vertex -3.822228e+00 -2.932588e+00  4.000000e+00
   endloop
 endfacet
 facet normal  0.000000e+00  0.000000e+00  1.000000e+00
   outer loop
     vertex -3.600000e+00 -3.000000e+00  4.000000e+00
     vertex -3.822228e+00 -2.932588e+00  4.000000e+00
     vertex -3.753073e+00 -2.969552e+00  4.000000e+00
   endloop
 endfacet
 facet normal  0.000000e+00  0.000000e+00  1.000000e+00
   outer loop
     vertex -3.600000e+00 -3.000000e+00  4.000000e+00
     vertex -3.753073e+00 -2.969552e+00  4.000000e+00
     vertex -3.678036e+00 -2.992314e+00  4.000000e+00
   endloop
 endfacet
 facet normal  0.000000e+00  0.000000e+00  1.000000e+00
   outer loop
     vertex -3.600000e+00 -3.000000e+00  4.000000e+00
     vertex -4.000000e+00 -2.600000e+00  4.000000e+00
     vertex -3.882843e+00 -2.882843e+00  4.000000e+00
   endloop
 endfacet
 facet normal  0.000000e+00  0.000000e+00  1.000000e+00
   outer loop
     vertex -4.000000e+00  2.600000e+00  4.000000e+00
     vertex -4.000000e+00 -2.600000e+00  4.000000e+00
     vertex -3.600000e+00 -3.000000e+00  4.000000e+00
   endloop
 endfacet
 facet normal  0.000000e+00  0.000000e+00  1.000000e+00
   outer loop
     vertex -3.969552e+00  2.753073e+00  4.000000e+00
     vertex -3.992314e+00  2.678036e+00  4.000000e+00
     vertex -4.000000e+00  2.600000e+00  4.000000e+00
   endloop
 endfacet
 facet normal  0.000000e+00  0.000000e+00  1.000000e+00
   outer loop
     vertex -3.932588e+00  2.822228e+00  4.000000e+00
     vertex -3.969552e+00  2.753073e+00  4.000000e+00
     vertex -4.000000e+00  2.600000e+00  4.000000e+00
   endloop
 endfacet
 facet normal  0.000000e+00  0.000000e+00  1.000000e+00
   outer loop
     vertex -3.882843e+00  2.882843e+00  4.000000e+00
     vertex -3.932588e+00  2.822228e+00  4.000000e+00
     vertex -4.000000e+00  2.600000e+00  4.000000e+00
   endloop
 endfacet
 facet normal  0.000000e+00  0.000000e+00  1.000000e+00
   outer loop
     vertex -3.753073e+00  2.969552e+00  4.000000e+00
     vertex -3.822228e+00  2.932588e+00  4.000000e+00
     vertex -3.882843e+00  2.882843e+00  4.000000e+00
   endloop
 endfacet
 facet normal  0.000000e+00  0.000000e+00  1.000000e+00
   outer loop
     vertex -3.753073e+00  2.969552e+00  4.000000e+00
     vertex -3.882843e+00  2.882843e+00  4.000000e+00
     vertex -4.000000e+00  2.600000e+00  4.000000e+00
   endloop
 endfacet
 facet normal  0.000000e+00  0.000000e+00  1.000000e+00
   outer loop
     vertex -3.600000e+00  3.000000e+00  4.000000e+00
     vertex -3.678036e+00  2.992314e+00  4.000000e+00
     vertex -3.753073e+00  2.969552e+00  4.000000e+00
   endloop
 endfacet
 facet normal  0.000000e+00  0.000000e+00  1.000000e+00
   outer loop
     vertex -3.600000e+00  3.000000e+00  4.000000e+00
     vertex -4.000000e+00  2.600000e+00  4.000000e+00
     vertex -3.600000e+00 -3.000000e+00  4.000000e+00
   endloop
 endfacet
 facet normal  0.000000e+00  0.000000e+00  1.000000e+00
   outer loop
     vertex -3.600000e+00  3.000000e+00  4.000000e+00
     vertex -3.753073e+00  2.969552e+00  4.000000e+00
     vertex -4.000000e+00  2.600000e+00  4.000000e+00
   endloop
 endfacet
 facet normal  0.000000e+00  0.000000e+00  1.000000e+00
   outer loop
     vertex  3.600000e+00 -3.000000e+00  4.000000e+00
     vertex -3.600000e+00  3.000000e+00  4.000000e+00
     vertex -3.600000e+00 -3.000000e+00  4.000000e+00
   endloop
 endfacet
 facet normal  0.000000e+00  0.000000e+00  1.000000e+00
   outer loop
     vertex  3.822228e+00 -2.932588e+00  4.000000e+00
     vertex  3.678036e+00 -2.992314e+00  4.000000e+00
     vertex  3.753073e+00 -2.969552e+00  4.000000e+00
   endloop
 endfacet
 facet normal  0.000000e+00  0.000000e+00  1.000000e+00
   outer loop
     vertex  3.932588e+00 -2.822228e+00  4.000000e+00
     vertex  3.822228e+00 -2.932588e+00  4.000000e+00
     vertex  3.882843e+00 -2.882843e+00  4.000000e+00
   endloop
 endfacet
 facet normal  0.000000e+00  0.000000e+00  1.000000e+00
   outer loop
     vertex  3.932588e+00 -2.822228e+00  4.000000e+00
     vertex  3.600000e+00 -3.000000e+00  4.000000e+00
     vertex  3.678036e+00 -2.992314e+00  4.000000e+00
   endloop
 endfacet
 facet normal  0.000000e+00  0.000000e+00  1.000000e+00
   outer loop
     vertex  3.932588e+00 -2.822228e+00  4.000000e+00
     vertex  3.678036e+00 -2.992314e+00  4.000000e+00
     vertex  3.822228e+00 -2.932588e+00  4.000000e+00
   endloop
 endfacet
 facet normal  0.000000e+00  0.000000e+00  1.000000e+00
   outer loop
     vertex  3.969552e+00 -2.753073e+00  4.000000e+00
     vertex  3.600000e+00 -3.000000e+00  4.000000e+00
     vertex  3.932588e+00 -2.822228e+00  4.000000e+00
   endloop
 endfacet
 facet normal  0.000000e+00  0.000000e+00  1.000000e+00
   outer loop
     vertex  4.000000e+00 -2.600000e+00  4.000000e+00
     vertex  3.969552e+00 -2.753073e+00  4.000000e+00
     vertex  3.992314e+00 -2.678036e+00  4.000000e+00
   endloop
 endfacet
 facet normal  0.000000e+00  0.000000e+00  1.000000e+00
   outer loop
     vertex  4.000000e+00 -2.600000e+00  4.000000e+00
     vertex  3.600000e+00 -3.000000e+00  4.000000e+00
     vertex  3.969552e+00 -2.753073e+00  4.000000e+00
   endloop
 endfacet
 facet normal  0.000000e+00  0.000000e+00  1.000000e+00
   outer loop
     vertex  3.600000e+00  3.000000e+00  4.000000e+00
     vertex  4.000000e+00 -2.600000e+00  4.000000e+00
     vertex  4.000000e+00  2.600000e+00  4.000000e+00
   endloop
 endfacet
 facet normal  0.000000e+00  0.000000e+00  1.000000e+00
   outer loop
     vertex  3.600000e+00  3.000000e+00  4.000000e+00
     vertex -3.600000e+00  3.000000e+00  4.000000e+00
     vertex  3.600000e+00 -3.000000e+00  4.000000e+00
   endloop
 endfacet
 facet normal  0.000000e+00  0.000000e+00  1.000000e+00
   outer loop
     vertex  3.600000e+00  3.000000e+00  4.000000e+00
     vertex  3.600000e+00 -3.000000e+00  4.000000e+00
     vertex  4.000000e+00 -2.600000e+00  4.000000e+00
   endloop
 endfacet
 facet normal  0.000000e+00  0.000000e+00  1.000000e+00
   outer loop
     vertex  3.992314e+00  2.678036e+00  4.000000e+00
     vertex  3.600000e+00  3.000000e+00  4.000000e+00
     vertex  4.000000e+00  2.600000e+00  4.000000e+00
   endloop
 endfacet
 facet normal  0.000000e+00  0.000000e+00  1.000000e+00
   outer loop
     vertex  3.753073e+00  2.969552e+00  4.000000e+00
     vertex  3.678036e+00  2.992314e+00  4.000000e+00
     vertex  3.600000e+00  3.000000e+00  4.000000e+00
   endloop
 endfacet
 facet normal  0.000000e+00  0.000000e+00  1.000000e+00
   outer loop
     vertex  3.932588e+00  2.822228e+00  4.000000e+00
     vertex  3.992314e+00  2.678036e+00  4.000000e+00
     vertex  3.969552e+00  2.753073e+00  4.000000e+00
   endloop
 endfacet
 facet normal  0.000000e+00  0.000000e+00  1.000000e+00
   outer loop
     vertex  3.882843e+00  2.882843e+00  4.000000e+00
     vertex  3.753073e+00  2.969552e+00  4.000000e+00
     vertex  3.600000e+00  3.000000e+00  4.000000e+00
   endloop
 endfacet
 facet normal  0.000000e+00  0.000000e+00  1.000000e+00
   outer loop
     vertex  3.882843e+00  2.882843e+00  4.000000e+00
     vertex  3.992314e+00  2.678036e+00  4.000000e+00
     vertex  3.932588e+00  2.822228e+00  4.000000e+00
   endloop
 endfacet
 facet normal  0.000000e+00  0.000000e+00  1.000000e+00
   outer loop
     vertex  3.882843e+00  2.882843e+00  4.000000e+00
     vertex  3.822228e+00  2.932588e+00  4.000000e+00
     vertex  3.753073e+00  2.969552e+00  4.000000e+00
   endloop
 endfacet
 facet normal  0.000000e+00  0.000000e+00  1.000000e+00
   outer loop
     vertex  3.882843e+00  2.882843e+00  4.000000e+00
     vertex  3.600000e+00  3.000000e+00  4.000000e+00
     vertex  3.992314e+00  2.678036e+00  4.000000e+00
   endloop
 endfacet
 facet normal -9.951847e-01 -9.801714e-02 -0.000000e+00
   outer loop
     vertex -3.992314e+00 -2.678036e+00  4.000000e+00
     vertex -4.000000e+00 -2.600000e+00  0.000000e+00
     vertex -3.992314e+00 -2.678036e+00  0.000000e+00
   endloop
 endfacet
 facet normal -9.951847e-01 -9.801714e-02  1.283773e-19
   outer loop
     vertex -3.992314e+00 -2.678036e+00  4.000000e+00
     vertex -4.000000e+00 -2.600000e+00  4.000000e+00
     vertex -4.000000e+00 -2.600000e+00  0.000000e+00
   endloop
 endfacet
 facet normal -9.569403e-01 -2.902847e-01 -0.000000e+00
   outer loop
     vertex -3.969552e+00 -2.753073e+00  4.000000e+00
     vertex -3.992314e+00 -2.678036e+00  0.000000e+00
     vertex -3.969552e+00 -2.753073e+00  0.000000e+00
   endloop
 endfacet
 facet normal -9.569403e-01 -2.902847e-01  2.402100e-20
   outer loop
     vertex -3.969552e+00 -2.753073e+00  4.000000e+00
     vertex -3.992314e+00 -2.678036e+00  4.000000e+00
     vertex -3.992314e+00 -2.678036e+00  0.000000e+00
   endloop
 endfacet
 facet normal -8.819213e-01 -4.713967e-01 -0.000000e+00
   outer loop
     vertex -3.932588e+00 -2.822228e+00  4.000000e+00
     vertex -3.969552e+00 -2.753073e+00  0.000000e+00
     vertex -3.932588e+00 -2.822228e+00  0.000000e+00
   endloop
 endfacet
 facet normal -8.819213e-01 -4.713967e-01 -5.987877e-19
   outer loop
     vertex -3.932588e+00 -2.822228e+00  4.000000e+00
     vertex -3.969552e+00 -2.753073e+00  4.000000e+00
     vertex -3.969552e+00 -2.753073e+00  0.000000e+00
   endloop
 endfacet
 facet normal -7.730105e-01 -6.343933e-01 -0.000000e+00
   outer loop
     vertex -3.882843e+00 -2.882843e+00  4.000000e+00
     vertex -3.932588e+00 -2.822228e+00  0.000000e+00
     vertex -3.882843e+00 -2.882843e+00  0.000000e+00
   endloop
 endfacet
 facet normal -7.730105e-01 -6.343933e-01  2.708658e-19
   outer loop
     vertex -3.882843e+00 -2.882843e+00  4.000000e+00
     vertex -3.932588e+00 -2.822228e+00  4.000000e+00
     vertex -3.932588e+00 -2.822228e+00  0.000000e+00
   endloop
 endfacet
 facet normal -6.343933e-01 -7.730105e-01 -0.000000e+00
   outer loop
     vertex -3.822228e+00 -2.932588e+00  4.000000e+00
     vertex -3.882843e+00 -2.882843e+00  0.000000e+00
     vertex -3.822228e+00 -2.932588e+00  0.000000e+00
   endloop
 endfacet
 facet normal -6.343933e-01 -7.730105e-01  3.667818e-19
   outer loop
     vertex -3.822228e+00 -2.932588e+00  4.000000e+00
     vertex -3.882843e+00 -2.882843e+00  4.000000e+00
     vertex -3.882843e+00 -2.882843e+00  0.000000e+00
   endloop
 endfacet
 facet normal -4.713967e-01 -8.819213e-01 -0.000000e+00
   outer loop
     vertex -3.753073e+00 -2.969552e+00  4.000000e+00
     vertex -3.822228e+00 -2.932588e+00  0.000000e+00
     vertex -3.753073e+00 -2.969552e+00  0.000000e+00
   endloop
 endfacet
 facet normal -4.713967e-01 -8.819213e-01 -5.987877e-19
   outer loop
     vertex -3.753073e+00 -2.969552e+00  4.000000e+00
     vertex -3.822228e+00 -2.932588e+00  4.000000e+00
     vertex -3.822228e+00 -2.932588e+00  0.000000e+00
   endloop
 endfacet
 facet normal -2.902847e-01 -9.569403e-01 -0.000000e+00
   outer loop
     vertex -3.678036e+00 -2.992314e+00  4.000000e+00
     vertex -3.753073e+00 -2.969552e+00  0.000000e+00
     vertex -3.678036e+00 -2.992314e+00  0.000000e+00
   endloop
 endfacet
 facet normal -2.902847e-01 -9.569403e-01  2.402100e-20
   outer loop
     vertex -3.678036e+00 -2.992314e+00  4.000000e+00
     vertex -3.753073e+00 -2.969552e+00  4.000000e+00
     vertex -3.753073e+00 -2.969552e+00  0.000000e+00
   endloop
 endfacet
 facet normal -9.801714e-02 -9.951847e-01 -0.000000e+00
   outer loop
     vertex -3.600000e+00 -3.000000e+00  4.000000e+00
     vertex -3.678036e+00 -2.992314e+00  0.000000e+00
     vertex -3.600000e+00 -3.000000e+00  0.000000e+00
   endloop
 endfacet
 facet normal -9.801714e-02 -9.951847e-01 -5.088689e-20
   outer loop
     vertex -3.600000e+00 -3.000000e+00  4.000000e+00
     vertex -3.678036e+00 -2.992314e+00  4.000000e+00
     vertex -3.678036e+00 -2.992314e+00  0.000000e+00
   endloop
 endfacet
 facet normal -9.951847e-01  9.801714e-02  0.000000e+00
   outer loop
     vertex -3.992314e+00  2.678036e+00  4.000000e+00
     vertex -3.992314e+00  2.678036e+00  0.000000e+00
     vertex -4.000000e+00  2.600000e+00  0.000000e+00
   endloop
 endfacet
 facet normal -9.951847e-01  9.801714e-02 -1.283773e-19
   outer loop
     vertex -3.992314e+00  2.678036e+00  4.000000e+00
     vertex -4.000000e+00  2.600000e+00  0.000000e+00
     vertex -4.000000e+00  2.600000e+00  4.000000e+00
   endloop
 endfacet
 facet normal -9.569403e-01  2.902847e-01  0.000000e+00
   outer loop
     vertex -3.969552e+00  2.753073e+00  4.000000e+00
     vertex -3.969552e+00  2.753073e+00  0.000000e+00
     vertex -3.992314e+00  2.678036e+00  0.000000e+00
   endloop
 endfacet
 facet normal -9.569403e-01  2.902847e-01 -2.402100e-20
   outer loop
     vertex -3.969552e+00  2.753073e+00  4.000000e+00
     vertex -3.992314e+00  2.678036e+00  0.000000e+00
     vertex -3.992314e+00  2.678036e+00  4.000000e+00
   endloop
 endfacet
 facet normal -8.819213e-01  4.713967e-01  0.000000e+00
   outer loop
     vertex -3.932588e+00  2.822228e+00  4.000000e+00
     vertex -3.932588e+00  2.822228e+00  0.000000e+00
     vertex -3.969552e+00  2.753073e+00  0.000000e+00
   endloop
 endfacet
 facet normal -8.819213e-01  4.713967e-01  5.987877e-19
   outer loop
     vertex -3.932588e+00  2.822228e+00  4.000000e+00
     vertex -3.969552e+00  2.753073e+00  0.000000e+00
     vertex -3.969552e+00  2.753073e+00  4.000000e+00
   endloop
 endfacet
 facet normal -7.730105e-01  6.343933e-01  0.000000e+00
   outer loop
     vertex -3.882843e+00  2.882843e+00  4.000000e+00
     vertex -3.882843e+00  2.882843e+00  0.000000e+00
     vertex -3.932588e+00  2.822228e+00  0.000000e+00
   endloop
 endfacet
 facet normal -7.730105e-01  6.343933e-01 -1.865446e-19
   outer loop
     vertex -3.882843e+00  2.882843e+00  4.000000e+00
     vertex -3.932588e+00  2.822228e+00  0.000000e+00
     vertex -3.932588e+00  2.822228e+00  4.000000e+00
   endloop
 endfacet
 facet normal -6.343933e-01  7.730105e-01  0.000000e+00
   outer loop
     vertex -3.822228e+00  2.932588e+00  4.000000e+00
     vertex -3.822228e+00  2.932588e+00  0.000000e+00
     vertex -3.882843e+00  2.882843e+00  0.000000e+00
   endloop
 endfacet
 facet normal -6.343933e-01  7.730105e-01 -1.865446e-19
   outer loop
     vertex -3.822228e+00  2.932588e+00  4.000000e+00
     vertex -3.882843e+00  2.882843e+00  0.000000e+00
     vertex -3.882843e+00  2.882843e+00  4.000000e+00
   endloop
 endfacet
 facet normal -4.713967e-01  8.819213e-01  0.000000e+00
   outer loop
     vertex -3.753073e+00  2.969552e+00  4.000000e+00
     vertex -3.753073e+00  2.969552e+00  0.000000e+00
     vertex -3.822228e+00  2.932588e+00  0.000000e+00
   endloop
 endfacet
 facet normal -2.902847e-01  9.569403e-01  0.000000e+00
   outer loop
     vertex -3.753073e+00  2.969552e+00  4.000000e+00
     vertex -3.678036e+00  2.992314e+00  0.000000e+00
     vertex -3.753073e+00  2.969552e+00  0.000000e+00
   endloop
 endfacet
 facet normal -4.713967e-01  8.819213e-01  5.987877e-19
   outer loop
     vertex -3.753073e+00  2.969552e+00  4.000000e+00
     vertex -3.822228e+00  2.932588e+00  0.000000e+00
     vertex -3.822228e+00  2.932588e+00  4.000000e+00
   endloop
 endfacet
 facet normal -2.902847e-01  9.569403e-01  0.000000e+00
   outer loop
     vertex -3.678036e+00  2.992314e+00  4.000000e+00
     vertex -3.678036e+00  2.992314e+00  0.000000e+00
     vertex -3.753073e+00  2.969552e+00  4.000000e+00
   endloop
 endfacet
 facet normal -9.801714e-02  9.951847e-01  0.000000e+00
   outer loop
     vertex -3.600000e+00  3.000000e+00  4.000000e+00
     vertex -3.600000e+00  3.000000e+00  0.000000e+00
     vertex -3.678036e+00  2.992314e+00  0.000000e+00
   endloop
 endfacet
 facet normal -9.801714e-02  9.951847e-01 -1.283773e-19
   outer loop
     vertex -3.600000e+00  3.000000e+00  4.000000e+00
     vertex -3.678036e+00  2.992314e+00  0.000000e+00
     vertex -3.678036e+00  2.992314e+00  4.000000e+00
   endloop
 endfacet
 facet normal  0.000000e+00  0.000000e+00 -1.000000e+00
   outer loop
     vertex -4.000000e+00 -2.600000e+00  0.000000e+00
     vertex -3.969552e+00 -2.753073e+00  0.000000e+00
     vertex -3.992314e+00 -2.678036e+00  0.000000e+00
   endloop
 endfacet
 facet normal  0.000000e+00  0.000000e+00 -1.000000e+00
   outer loop
     vertex -4.000000e+00 -2.600000e+00  0.000000e+00
     vertex -3.932588e+00 -2.822228e+00  0.000000e+00
     vertex -3.969552e+00 -2.753073e+00  0.000000e+00
   endloop
 endfacet
 facet normal  0.000000e+00  0.000000e+00 -1.000000e+00
   outer loop
     vertex -4.000000e+00 -2.600000e+00  0.000000e+00
     vertex -3.882843e+00 -2.882843e+00  0.000000e+00
     vertex -3.932588e+00 -2.822228e+00  0.000000e+00
   endloop
 endfacet
 facet normal  0.000000e+00  0.000000e+00 -1.000000e+00
   outer loop
     vertex -3.600000e+00 -3.000000e+00  0.000000e+00
     vertex -3.822228e+00 -2.932588e+00  0.000000e+00
     vertex -3.882843e+00 -2.882843e+00  0.000000e+00
   endloop
 endfacet
 facet normal  0.000000e+00  0.000000e+00 -1.000000e+00
   outer loop
     vertex -3.600000e+00 -3.000000e+00  0.000000e+00
     vertex -3.753073e+00 -2.969552e+00  0.000000e+00
     vertex -3.822228e+00 -2.932588e+00  0.000000e+00
   endloop
 endfacet
 facet normal  0.000000e+00  0.000000e+00 -1.000000e+00
   outer loop
     vertex -3.600000e+00 -3.000000e+00  0.000000e+00
     vertex -3.678036e+00 -2.992314e+00  0.000000e+00
     vertex -3.753073e+00 -2.969552e+00  0.000000e+00
   endloop
 endfacet
 facet normal  0.000000e+00  0.000000e+00 -1.000000e+00
   outer loop
     vertex -3.600000e+00 -3.000000e+00  0.000000e+00
     vertex -3.882843e+00 -2.882843e+00  0.000000e+00
     vertex -4.000000e+00 -2.600000e+00  0.000000e+00
   endloop
 endfacet
 facet normal  0.000000e+00  0.000000e+00 -1.000000e+00
   outer loop
     vertex -4.000000e+00  2.600000e+00  0.000000e+00
     vertex -3.600000e+00 -3.000000e+00  0.000000e+00
     vertex -4.000000e+00 -2.600000e+00  0.000000e+00
   endloop
 endfacet
 facet normal  0.000000e+00  0.000000e+00 -1.000000e+00
   outer loop
     vertex -3.969552e+00  2.753073e+00  0.000000e+00
     vertex -4.000000e+00  2.600000e+00  0.000000e+00
     vertex -3.992314e+00  2.678036e+00  0.000000e+00
   endloop
 endfacet
 facet normal  0.000000e+00  0.000000e+00 -1.000000e+00
   outer loop
     vertex -3.932588e+00  2.822228e+00  0.000000e+00
     vertex -4.000000e+00  2.600000e+00  0.000000e+00
     vertex -3.969552e+00  2.753073e+00  0.000000e+00
   endloop
 endfacet
 facet normal  0.000000e+00  0.000000e+00 -1.000000e+00
   outer loop
     vertex -3.882843e+00  2.882843e+00  0.000000e+00
     vertex -4.000000e+00  2.600000e+00  0.000000e+00
     vertex -3.932588e+00  2.822228e+00  0.000000e+00
   endloop
 endfacet
 facet normal  0.000000e+00  0.000000e+00 -1.000000e+00
   outer loop
     vertex -3.753073e+00  2.969552e+00  0.000000e+00
     vertex -3.882843e+00  2.882843e+00  0.000000e+00
     vertex -3.822228e+00  2.932588e+00  0.000000e+00
   endloop
 endfacet
 facet normal  0.000000e+00  0.000000e+00 -1.000000e+00
   outer loop
     vertex -3.753073e+00  2.969552e+00  0.000000e+00
     vertex -4.000000e+00  2.600000e+00  0.000000e+00
     vertex -3.882843e+00  2.882843e+00  0.000000e+00
   endloop
 endfacet
 facet normal  0.000000e+00  0.000000e+00 -1.000000e+00
   outer loop
     vertex -3.600000e+00  3.000000e+00  0.000000e+00
     vertex -3.753073e+00  2.969552e+00  0.000000e+00
     vertex -3.678036e+00  2.992314e+00  0.000000e+00
   endloop
 endfacet
 facet normal  0.000000e+00 -0.000000e+00 -1.000000e+00
   outer loop
     vertex -3.600000e+00  3.000000e+00  0.000000e+00
     vertex -3.600000e+00 -3.000000e+00  0.000000e+00
     vertex -4.000000e+00  2.600000e+00  0.000000e+00
   endloop
 endfacet
 facet normal  0.000000e+00  0.000000e+00 -1.000000e+00
   outer loop
     vertex -3.600000e+00  3.000000e+00  0.000000e+00
     vertex -4.000000e+00  2.600000e+00  0.000000e+00
     vertex -3.753073e+00  2.969552e+00  0.000000e+00
   endloop
 endfacet
 facet normal  0.000000e+00  0.000000e+00 -1.000000e+00
   outer loop
     vertex  3.600000e+00 -3.000000e+00  0.000000e+00
     vertex -3.600000e+00 -3.000000e+00  0.000000e+00
     vertex -3.600000e+00  3.000000e+00  0.000000e+00
   endloop
 endfacet
 facet normal  0.000000e+00  0.000000e+00 -1.000000e+00
   outer loop
     vertex  3.822228e+00 -2.932588e+00  0.000000e+00
     vertex  3.753073e+00 -2.969552e+00  0.000000e+00
     vertex  3.678036e+00 -2.992314e+00  0.000000e+00
   endloop
 endfacet
 facet normal  0.000000e+00  0.000000e+00 -1.000000e+00
   outer loop
     vertex  3.932588e+00 -2.822228e+00  0.000000e+00
     vertex  3.882843e+00 -2.882843e+00  0.000000e+00
     vertex  3.822228e+00 -2.932588e+00  0.000000e+00
   endloop
 endfacet
 facet normal  0.000000e+00  0.000000e+00 -1.000000e+00
   outer loop
     vertex  3.932588e+00 -2.822228e+00  0.000000e+00
     vertex  3.678036e+00 -2.992314e+00  0.000000e+00
     vertex  3.600000e+00 -3.000000e+00  0.000000e+00
   endloop
 endfacet
 facet normal  0.000000e+00  0.000000e+00 -1.000000e+00
   outer loop
     vertex  3.932588e+00 -2.822228e+00  0.000000e+00
     vertex  3.822228e+00 -2.932588e+00  0.000000e+00
     vertex  3.678036e+00 -2.992314e+00  0.000000e+00
   endloop
 endfacet
 facet normal  0.000000e+00  0.000000e+00 -1.000000e+00
   outer loop
     vertex  3.969552e+00 -2.753073e+00  0.000000e+00
     vertex  3.932588e+00 -2.822228e+00  0.000000e+00
     vertex  3.600000e+00 -3.000000e+00  0.000000e+00
   endloop
 endfacet
 facet normal  0.000000e+00  0.000000e+00 -1.000000e+00
   outer loop
     vertex  4.000000e+00 -2.600000e+00  0.000000e+00
     vertex  3.992314e+00 -2.678036e+00  0.000000e+00
     vertex  3.969552e+00 -2.753073e+00  0.000000e+00
   endloop
 endfacet
 facet normal  0.000000e+00  0.000000e+00 -1.000000e+00
   outer loop
     vertex  4.000000e+00 -2.600000e+00  0.000000e+00
     vertex  3.969552e+00 -2.753073e+00  0.000000e+00
     vertex  3.600000e+00 -3.000000e+00  0.000000e+00
   endloop
 endfacet
 facet normal  0.000000e+00  0.000000e+00 -1.000000e+00
   outer loop
     vertex  3.600000e+00  3.000000e+00  0.000000e+00
     vertex  4.000000e+00  2.600000e+00  0.000000e+00
     vertex  4.000000e+00 -2.600000e+00  0.000000e+00
   endloop
 endfacet
 facet normal -0.000000e+00 -0.000000e+00 -1.000000e+00
   outer loop
     vertex  3.600000e+00  3.000000e+00  0.000000e+00
     vertex  3.600000e+00 -3.000000e+00  0.000000e+00
     vertex -3.600000e+00  3.000000e+00  0.000000e+00
   endloop
 endfacet
 facet normal  0.000000e+00  0.000000e+00 -1.000000e+00
   outer loop
     vertex  3.600000e+00  3.000000e+00  0.000000e+00
     vertex  4.000000e+00 -2.600000e+00  0.000000e+00
     vertex  3.600000e+00 -3.000000e+00  0.000000e+00
   endloop
 endfacet
 facet normal -0.000000e+00 -0.000000e+00 -1.000000e+00
   outer loop
     vertex  3.992314e+00  2.678036e+00  0.000000e+00
     vertex  4.000000e+00  2.600000e+00  0.000000e+00
     vertex  3.600000e+00  3.000000e+00  0.000000e+00
   endloop
 endfacet
 facet normal  0.000000e+00  0.000000e+00 -1.000000e+00
   outer loop
     vertex  3.753073e+00  2.969552e+00  0.000000e+00
     vertex  3.600000e+00  3.000000e+00  0.000000e+00
     vertex  3.678036e+00  2.992314e+00  0.000000e+00
   endloop
 endfacet
 facet normal  0.000000e+00  0.000000e+00 -1.000000e+00
   outer loop
     vertex  3.932588e+00  2.822228e+00  0.000000e+00
     vertex  3.969552e+00  2.753073e+00  0.000000e+00
     vertex  3.992314e+00  2.678036e+00  0.000000e+00
   endloop
 endfacet
 facet normal  0.000000e+00  0.000000e+00 -1.000000e+00
   outer loop
     vertex  3.882843e+00  2.882843e+00  0.000000e+00
     vertex  3.600000e+00  3.000000e+00  0.000000e+00
     vertex  3.753073e+00  2.969552e+00  0.000000e+00
   endloop
 endfacet
 facet normal  0.000000e+00  0.000000e+00 -1.000000e+00
   outer loop
     vertex  3.882843e+00  2.882843e+00  0.000000e+00
     vertex  3.932588e+00  2.822228e+00  0.000000e+00
     vertex  3.992314e+00  2.678036e+00  0.000000e+00
   endloop
 endfacet
 facet normal  0.000000e+00  0.000000e+00 -1.000000e+00
   outer loop
     vertex  3.882843e+00  2.882843e+00  0.000000e+00
     vertex  3.753073e+00  2.969552e+00  0.000000e+00
     vertex  3.822228e+00  2.932588e+00  0.000000e+00
   endloop
 endfacet
 facet normal -0.000000e+00 -0.000000e+00 -1.000000e+00
   outer loop
     vertex  3.882843e+00  2.882843e+00  0.000000e+00
     vertex  3.992314e+00  2.678036e+00  0.000000e+00
     vertex  3.600000e+00  3.000000e+00  0.000000e+00
   endloop
 endfacet
 facet normal  0.000000e+00 -1.000000e+00  0.000000e+00
   outer loop
     vertex  3.600000e+00 -3.000000e+00  0.000000e+00
     vertex -3.600000e+00 -3.000000e+00  4.000000e+00
     vertex -3.600000e+00 -3.000000e+00  0.000000e+00
   endloop
 endfacet
 facet normal -0.000000e+00 -1.000000e+00 -0.000000e+00
   outer loop
     vertex  3.600000e+00 -3.000000e+00  4.000000e+00
     vertex -3.600000e+00 -3.000000e+00  4.000000e+00
     vertex  3.600000e+00 -3.000000e+00  0.000000e+00
   endloop
 endfacet
 facet normal  0.000000e+00  1.000000e+00  0.000000e+00
   outer loop
     vertex  3.600000e+00  3.000000e+00  0.000000e+00
     vertex -3.600000e+00  3.000000e+00  0.000000e+00
     vertex -3.600000e+00  3.000000e+00  4.000000e+00
   endloop
 endfacet
 facet normal  0.000000e+00  1.000000e+00  0.000000e+00
   outer loop
     vertex  3.600000e+00  3.000000e+00  4.000000e+00
     vertex  3.600000e+00  3.000000e+00  0.000000e+00
     vertex -3.600000e+00  3.000000e+00  4.000000e+00
   endloop
 endfacet
 facet normal  9.951847e-01 -9.801714e-02  0.000000e+00
   outer loop
     vertex  3.992314e+00 -2.678036e+00  4.000000e+00
     vertex  3.992314e+00 -2.678036e+00  0.000000e+00
     vertex  4.000000e+00 -2.600000e+00  0.000000e+00
   endloop
 endfacet
 facet normal  9.951847e-01 -9.801714e-02 -1.283773e-19
   outer loop
     vertex  3.992314e+00 -2.678036e+00  4.000000e+00
     vertex  4.000000e+00 -2.600000e+00  0.000000e+00
     vertex  4.000000e+00 -2.600000e+00  4.000000e+00
   endloop
 endfacet
 facet normal  9.569403e-01 -2.902847e-01  0.000000e+00
   outer loop
     vertex  3.969552e+00 -2.753073e+00  4.000000e+00
     vertex  3.969552e+00 -2.753073e+00  0.000000e+00
     vertex  3.992314e+00 -2.678036e+00  0.000000e+00
   endloop
 endfacet
 facet normal  9.569403e-01 -2.902847e-01 -2.402100e-20
   outer loop
     vertex  3.969552e+00 -2.753073e+00  4.000000e+00
     vertex  3.992314e+00 -2.678036e+00  0.000000e+00
     vertex  3.992314e+00 -2.678036e+00  4.000000e+00
   endloop
 endfacet
 facet normal  8.819213e-01 -4.713967e-01  0.000000e+00
   outer loop
     vertex  3.932588e+00 -2.822228e+00  4.000000e+00
     vertex  3.932588e+00 -2.822228e+00  0.000000e+00
     vertex  3.969552e+00 -2.753073e+00  0.000000e+00
   endloop
 endfacet
 facet normal  8.819213e-01 -4.713967e-01  5.987877e-19
   outer loop
     vertex  3.932588e+00 -2.822228e+00  4.000000e+00
     vertex  3.969552e+00 -2.753073e+00  0.000000e+00
     vertex  3.969552e+00 -2.753073e+00  4.000000e+00
   endloop
 endfacet
 facet normal  7.730105e-01 -6.343933e-01  0.000000e+00
   outer loop
     vertex  3.882843e+00 -2.882843e+00  4.000000e+00
     vertex  3.882843e+00 -2.882843e+00  0.000000e+00
     vertex  3.932588e+00 -2.822228e+00  0.000000e+00
   endloop
 endfacet
 facet normal  7.730105e-01 -6.343933e-01 -2.708658e-19
   outer loop
     vertex  3.882843e+00 -2.882843e+00  4.000000e+00
     vertex  3.932588e+00 -2.822228e+00  0.000000e+00
     vertex  3.932588e+00 -2.822228e+00  4.000000e+00
   endloop
 endfacet
 facet normal  6.343933e-01 -7.730105e-01  0.000000e+00
   outer loop
     vertex  3.822228e+00 -2.932588e+00  4.000000e+00
     vertex  3.822228e+00 -2.932588e+00  0.000000e+00
     vertex  3.882843e+00 -2.882843e+00  0.000000e+00
   endloop
 endfacet
 facet normal  6.343933e-01 -7.730105e-01 -3.667818e-19
   outer loop
     vertex  3.822228e+00 -2.932588e+00  4.000000e+00
     vertex  3.882843e+00 -2.882843e+00  0.000000e+00
     vertex  3.882843e+00 -2.882843e+00  4.000000e+00
   endloop
 endfacet
 facet normal  4.713967e-01 -8.819213e-01  0.000000e+00
   outer loop
     vertex  3.753073e+00 -2.969552e+00  4.000000e+00
     vertex  3.753073e+00 -2.969552e+00  0.000000e+00
     vertex  3.822228e+00 -2.932588e+00  0.000000e+00
   endloop
 endfacet
 facet normal  4.713967e-01 -8.819213e-01  5.987877e-19
   outer loop
     vertex  3.753073e+00 -2.969552e+00  4.000000e+00
     vertex  3.822228e+00 -2.932588e+00  0.000000e+00
     vertex  3.822228e+00 -2.932588e+00  4.000000e+00
   endloop
 endfacet
 facet normal  2.902847e-01 -9.569403e-01  0.000000e+00
   outer loop
     vertex  3.678036e+00 -2.992314e+00  4.000000e+00
     vertex  3.678036e+00 -2.992314e+00  0.000000e+00
     vertex  3.753073e+00 -2.969552e+00  0.000000e+00
   endloop
 endfacet
 facet normal  2.902847e-01 -9.569403e-01 -2.402100e-20
   outer loop
     vertex  3.678036e+00 -2.992314e+00  4.000000e+00
     vertex  3.753073e+00 -2.969552e+00  0.000000e+00
     vertex  3.753073e+00 -2.969552e+00  4.000000e+00
   endloop
 endfacet
 facet normal  9.801714e-02 -9.951847e-01  0.000000e+00
   outer loop
     vertex  3.600000e+00 -3.000000e+00  4.000000e+00
     vertex  3.600000e+00 -3.000000e+00  0.000000e+00
     vertex  3.678036e+00 -2.992314e+00  0.000000e+00
   endloop
 endfacet
 facet normal  9.801714e-02 -9.951847e-01  5.088689e-20
   outer loop
     vertex  3.600000e+00 -3.000000e+00  4.000000e+00
     vertex  3.678036e+00 -2.992314e+00  0.000000e+00
     vertex  3.678036e+00 -2.992314e+00  4.000000e+00
   endloop
 endfacet
 facet normal  9.951847e-01  9.801714e-02  0.000000e+00
   outer loop
     vertex  3.992314e+00  2.678036e+00  4.000000e+00
     vertex  4.000000e+00  2.600000e+00  0.000000e+00
     vertex  3.992314e+00  2.678036e+00  0.000000e+00
   endloop
 endfacet
 facet normal  9.951847e-01  9.801714e-02  1.283773e-19
   outer loop
     vertex  3.992314e+00  2.678036e+00  4.000000e+00
     vertex  4.000000e+00  2.600000e+00  4.000000e+00
     vertex  4.000000e+00  2.600000e+00  0.000000e+00
   endloop
 endfacet
 facet normal  9.569403e-01  2.902847e-01  0.000000e+00
   outer loop
     vertex  3.969552e+00  2.753073e+00  4.000000e+00
     vertex  3.992314e+00  2.678036e+00  0.000000e+00
     vertex  3.969552e+00  2.753073e+00  0.000000e+00
   endloop
 endfacet
 facet normal  9.569403e-01  2.902847e-01  2.402100e-20
   outer loop
     vertex  3.969552e+00  2.753073e+00  4.000000e+00
     vertex  3.992314e+00  2.678036e+00  4.000000e+00
     vertex  3.992314e+00  2.678036e+00  0.000000e+00
   endloop
 endfacet
 facet normal  8.819213e-01  4.713967e-01  0.000000e+00
   outer loop
     vertex  3.932588e+00  2.822228e+00  4.000000e+00
     vertex  3.969552e+00  2.753073e+00  0.000000e+00
     vertex  3.932588e+00  2.822228e+00  0.000000e+00
   endloop
 endfacet
 facet normal  8.819213e-01  4.713967e-01 -5.987877e-19
   outer loop
     vertex  3.932588e+00  2.822228e+00  4.000000e+00
     vertex  3.969552e+00  2.753073e+00  4.000000e+00
     vertex  3.969552e+00  2.753073e+00  0.000000e+00
   endloop
 endfacet
 facet normal  7.730105e-01  6.343933e-01  0.000000e+00
   outer loop
     vertex  3.882843e+00  2.882843e+00  4.000000e+00
     vertex  3.932588e+00  2.822228e+00  0.000000e+00
     vertex  3.882843e+00  2.882843e+00  0.000000e+00
   endloop
 endfacet
 facet normal  7.730105e-01  6.343933e-01  1.865446e-19
   outer loop
     vertex  3.882843e+00  2.882843e+00  4.000000e+00
     vertex  3.932588e+00  2.822228e+00  4.000000e+00
     vertex  3.932588e+00  2.822228e+00  0.000000e+00
   endloop
 endfacet
 facet normal  6.343933e-01  7.730105e-01  0.000000e+00
   outer loop
     vertex  3.822228e+00  2.932588e+00  4.000000e+00
     vertex  3.882843e+00  2.882843e+00  0.000000e+00
     vertex  3.822228e+00  2.932588e+00  0.000000e+00
   endloop
 endfacet
 facet normal  6.343933e-01  7.730105e-01  1.865446e-19
   outer loop
     vertex  3.822228e+00  2.932588e+00  4.000000e+00
     vertex  3.882843e+00  2.882843e+00  4.000000e+00
     vertex  3.882843e+00  2.882843e+00  0.000000e+00
   endloop
 endfacet
 facet normal  4.713967e-01  8.819213e-01  0.000000e+00
   outer loop
     vertex  3.753073e+00  2.969552e+00  4.000000e+00
     vertex  3.822228e+00  2.932588e+00  0.000000e+00
     vertex  3.753073e+00  2.969552e+00  0.000000e+00
   endloop
 endfacet
 facet normal  2.902847e-01  9.569403e-01  0.000000e+00
   outer loop
     vertex  3.753073e+00  2.969552e+00  4.000000e+00
     vertex  3.753073e+00  2.969552e+00  0.000000e+00
     vertex  3.678036e+00  2.992314e+00  0.000000e+00
   endloop
 endfacet
 facet normal  4.713967e-01  8.819213e-01 -5.987877e-19
   outer loop
     vertex  3.753073e+00  2.969552e+00  4.000000e+00
     vertex  3.822228e+00  2.932588e+00  4.000000e+00
     vertex  3.822228e+00  2.932588e+00  0.000000e+00
   endloop
 endfacet
 facet normal  2.902847e-01  9.569403e-01  0.000000e+00
   outer loop
     vertex  3.678036e+00  2.992314e+00  4.000000e+00
     vertex  3.753073e+00  2.969552e+00  4.000000e+00
     vertex  3.678036e+00  2.992314e+00  0.000000e+00
   endloop
 endfacet
 facet normal  9.801714e-02  9.951847e-01  0.000000e+00
   outer loop
     vertex  3.600000e+00  3.000000e+00  4.000000e+00
     vertex  3.678036e+00  2.992314e+00  0.000000e+00
     vertex  3.600000e+00  3.000000e+00  0.000000e+00
   endloop
 endfacet
 facet normal  9.801714e-02  9.951847e-01  1.283773e-19
   outer loop
     vertex  3.600000e+00  3.000000e+00  4.000000e+00
     vertex  3.678036e+00  2.992314e+00  4.000000e+00
     vertex  3.678036e+00  2.992314e+00  0.000000e+00
   endloop
 endfacet
 facet normal  1.000000e+00  0.000000e+00  0.000000e+00
   outer loop
     vertex  4.000000e+00 -2.600000e+00  4.000000e+00
     vertex  4.000000e+00 -2.600000e+00  0.000000e+00
     vertex  4.000000e+00  2.600000e+00  0.000000e+00
   endloop
 endfacet
 facet normal  1.000000e+00 -0.000000e+00  0.000000e+00
   outer loop
     vertex  4.000000e+00 -2.600000e+00  4.000000e+00
     vertex  4.000000e+00  2.600000e+00  0.000000e+00
     vertex  4.000000e+00  2.600000e+00  4.000000e+00
   endloop
 endfacet
endsolid
