solid 
 facet normal -1.000000e+00  0.000000e+00  0.000000e+00
   outer loop
     vertex -5.000000e+00 -4.000000e+00  0.000000e+00
     vertex -5.000000e+00  4.000000e+00  3.400000e+00
     vertex -5.000000e+00  4.000000e+00  0.000000e+00
   endloop
 endfacet
 facet normal -1.000000e+00  0.000000e+00  0.000000e+00
   outer loop
     vertex -5.000000e+00 -4.000000e+00  3.400000e+00
     vertex -5.000000e+00  4.000000e+00  3.400000e+00
     vertex -5.000000e+00 -4.000000e+00  0.000000e+00
   endloop
 endfacet
 facet normal  0.000000e+00 -1.000000e+00 -0.000000e+00
   outer loop
     vertex  5.000000e+00 -4.000000e+00  3.400000e+00
     vertex -5.000000e+00 -4.000000e+00  0.000000e+00
     vertex  5.000000e+00 -4.000000e+00  0.000000e+00
   endloop
 endfacet
 facet normal -0.000000e+00 -1.000000e+00  0.000000e+00
   outer loop
     vertex  5.000000e+00 -4.000000e+00  3.400000e+00
     vertex -5.000000e+00 -4.000000e+00  3.400000e+00
     vertex -5.000000e+00 -4.000000e+00  0.000000e+00
   endloop
 endfacet
 facet normal -7.071068e-01  0.000000e+00  7.071068e-01
   outer loop
     vertex -5.000000e+00  4.000000e+00  3.400000e+00
     vertex -5.000000e+00 -4.000000e+00  3.400000e+00
     vertex -4.400000e+00 -3.400000e+00  4.000000e+00
   endloop
 endfacet
 facet normal -7.071068e-01  0.000000e+00  7.071068e-01
   outer loop
     vertex -4.400000e+00  3.400000e+00  4.000000e+00
     vertex -5.000000e+00  4.000000e+00  3.400000e+00
     vertex -4.400000e+00 -3.400000e+00  4.000000e+00
   endloop
 endfacet
 facet normal -0.000000e+00  0.000000e+00 -1.000000e+00
   outer loop
     vertex  5.000000e+00  4.000000e+00  0.000000e+00
     vertex -5.000000e+00 -4.000000e+00  0.000000e+00
     vertex -5.000000e+00  4.000000e+00  0.000000e+00
   endloop
 endfacet
 facet normal  0.000000e+00 -0.000000e+00 -1.000000e+00
   outer loop
     vertex  5.000000e+00  4.000000e+00  0.000000e+00
     vertex  5.000000e+00 -4.000000e+00  0.000000e+00
     vertex -5.000000e+00 -4.000000e+00  0.000000e+00
   endloop
 endfacet
 facet normal  0.000000e+00  1.000000e+00  0.000000e+00
   outer loop
     vertex  5.000000e+00  4.000000e+00  3.400000e+00
     vertex  5.000000e+00  4.000000e+00  0.000000e+00
     vertex -5.000000e+00  4.000000e+00  0.000000e+00
   endloop
 endfacet
 facet normal  0.000000e+00  1.000000e+00  0.000000e+00
   outer loop
     vertex  5.000000e+00  4.000000e+00  3.400000e+00
     vertex -5.000000e+00  4.000000e+00  0.000000e+00
     vertex -5.000000e+00  4.000000e+00  3.400000e+00
   endloop
 endfacet
 facet normal  1.000000e+00  0.000000e+00  0.000000e+00
   outer loop
     vertex  5.000000e+00 -4.000000e+00  0.000000e+00
     vertex  5.000000e+00  4.000000e+00  0.000000e+00
     vertex  5.000000e+00  4.000000e+00  3.400000e+00
   endloop
 endfacet
 facet normal  1.000000e+00 -0.000000e+00  0.000000e+00
   outer loop
     vertex  5.000000e+00 -4.000000e+00  3.400000e+00
     vertex  5.000000e+00 -4.000000e+00  0.000000e+00
     vertex  5.000000e+00  4.000000e+00  3.400000e+00
   endloop
 endfacet
 facet normal  6.280370e-17 -7.071068e-01  7.071068e-01
   outer loop
     vertex  5.000000e+00 -4.000000e+00  3.400000e+00
     vertex -4.400000e+00 -3.400000e+00  4.000000e+00
     vertex -5.000000e+00 -4.000000e+00  3.400000e+00
   endloop
 endfacet
 facet normal  1.070518e-16 -7.071068e-01  7.071068e-01
   outer loop
     vertex  4.400000e+00 -3.400000e+00  4.000000e+00
     vertex -4.400000e+00 -3.400000e+00  4.000000e+00
     vertex  5.000000e+00 -4.000000e+00  3.400000e+00
   endloop
 endfacet
 facet normal  1.513940e-16  0.000000e+00  1.000000e+00
   outer loop
     vertex  4.400000e+00  3.400000e+00  4.000000e+00
     vertex -4.400000e+00  3.400000e+00  4.000000e+00
     vertex -4.400000e+00 -3.400000e+00  4.000000e+00
   endloop
 endfacet
 facet normal  1.513940e-16  0.000000e+00  1.000000e+00
   outer loop
     vertex  4.400000e+00  3.400000e+00  4.000000e+00
     vertex -4.400000e+00 -3.400000e+00  4.000000e+00
     vertex  4.400000e+00 -3.400000e+00  4.000000e+00
   endloop
 endfacet
 facet normal  1.070518e-16  7.071068e-01  7.071068e-01
   outer loop
     vertex  4.400000e+00  3.400000e+00  4.000000e+00
     vertex -5.000000e+00  4.000000e+00  3.400000e+00
     vertex -4.400000e+00  3.400000e+00  4.000000e+00
   endloop
 endfacet
 facet normal  6.437379e-17  7.071068e-01  7.071068e-01
   outer loop
     vertex  4.400000e+00  3.400000e+00  4.000000e+00
     vertex  5.000000e+00  4.000000e+00  3.400000e+00
     vertex -5.000000e+00  4.000000e+00  3.400000e+00
   endloop
 endfacet
 facet normal  7.071068e-01  0.000000e+00  7.071068e-01
   outer loop
     vertex  5.000000e+00  4.000000e+00  3.400000e+00
     vertex  4.400000e+00 -3.400000e+00  4.000000e+00
     vertex  5.000000e+00 -4.000000e+00  3.400000e+00
   endloop
 endfacet
 facet normal  7.071068e-01  0.000000e+00  7.071068e-01
   outer loop
     vertex  4.400000e+00  3.400000e+00  4.000000e+00
     vertex  4.400000e+00 -3.400000e+00  4.000000e+00
     vertex  5.000000e+00  4.000000e+00  3.400000e+00
   endloop
 endfacet
endsolid
