solid 
 facet normal  8.660254e-01  5.000000e-01  1.922963e-17
   outer loop
     vertex  1.443376e+00  2.500000e+00  0.000000e+00
     vertex  2.886751e+00  0.000000e+00  2.000000e+00
     vertex  2.886751e+00  0.000000e+00  0.000000e+00
   endloop
 endfacet
 facet normal  8.660254e-01  5.000000e-01 -0.000000e+00
   outer loop
     vertex  1.443376e+00  2.500000e+00  0.000000e+00
     vertex  1.443376e+00  2.500000e+00  2.000000e+00
     vertex  2.886751e+00  0.000000e+00  2.000000e+00
   endloop
 endfacet
 facet normal  1.538370e-16  1.000000e+00  0.000000e+00
   outer loop
     vertex -1.443376e+00  2.500000e+00  0.000000e+00
     vertex  1.443376e+00  2.500000e+00  2.000000e+00
     vertex  1.443376e+00  2.500000e+00  0.000000e+00
   endloop
 endfacet
 facet normal  1.538370e-16  1.000000e+00 -0.000000e+00
   outer loop
     vertex -1.443376e+00  2.500000e+00  0.000000e+00
     vertex -1.443376e+00  2.500000e+00  2.000000e+00
     vertex  1.443376e+00  2.500000e+00  2.000000e+00
   endloop
 endfacet
 facet normal -8.660254e-01  5.000000e-01 -3.845925e-17
   outer loop
     vertex -2.886751e+00  3.535251e-16  0.000000e+00
     vertex -1.443376e+00  2.500000e+00  2.000000e+00
     vertex -1.443376e+00  2.500000e+00  0.000000e+00
   endloop
 endfacet
 facet normal -8.660254e-01  5.000000e-01  0.000000e+00
   outer loop
     vertex -2.886751e+00  3.535251e-16  0.000000e+00
     vertex -2.886751e+00  3.535251e-16  2.000000e+00
     vertex -1.443376e+00  2.500000e+00  2.000000e+00
   endloop
 endfacet
 facet normal -8.660254e-01 -5.000000e-01  3.845925e-17
   outer loop
     vertex -1.443376e+00 -2.500000e+00  0.000000e+00
     vertex -2.886751e+00  3.535251e-16  2.000000e+00
     vertex -2.886751e+00  3.535251e-16  0.000000e+00
   endloop
 endfacet
 facet normal -8.660254e-01 -5.000000e-01  0.000000e+00
   outer loop
     vertex -1.443376e+00 -2.500000e+00  0.000000e+00
     vertex -1.443376e+00 -2.500000e+00  2.000000e+00
     vertex -2.886751e+00  3.535251e-16  2.000000e+00
   endloop
 endfacet
 facet normal -1.538370e-16 -1.000000e+00  0.000000e+00
   outer loop
     vertex  1.443376e+00 -2.500000e+00  0.000000e+00
     vertex -1.443376e+00 -2.500000e+00  2.000000e+00
     vertex -1.443376e+00 -2.500000e+00  0.000000e+00
   endloop
 endfacet
 facet normal -1.538370e-16 -1.000000e+00  0.000000e+00
   outer loop
     vertex  1.443376e+00 -2.500000e+00  0.000000e+00
     vertex  1.443376e+00 -2.500000e+00  2.000000e+00
     vertex -1.443376e+00 -2.500000e+00  2.000000e+00
   endloop
 endfacet
 facet normal  8.660254e-01 -5.000000e-01 -1.922963e-17
   outer loop
     vertex  2.886751e+00  0.000000e+00  0.000000e+00
     vertex  1.443376e+00 -2.500000e+00  2.000000e+00
     vertex  1.443376e+00 -2.500000e+00  0.000000e+00
   endloop
 endfacet
 facet normal  8.660254e-01 -5.000000e-01  0.000000e+00
   outer loop
     vertex  2.886751e+00  0.000000e+00  0.000000e+00
     vertex  2.886751e+00  0.000000e+00  2.000000e+00
     vertex  1.443376e+00 -2.500000e+00  2.000000e+00
   endloop
 endfacet
 facet normal  0.000000e+00  0.000000e+00 -1.000000e+00
   outer loop
     vertex -1.443376e+00  2.500000e+00  0.000000e+00
     vertex -1.443376e+00 -2.500000e+00  0.000000e+00
     vertex -2.886751e+00  3.535251e-16  0.000000e+00
   endloop
 endfacet
 facet normal  0.000000e+00 -0.000000e+00 -1.000000e+00
   outer loop
     vertex  1.443376e+00  2.500000e+00  0.000000e+00
     vertex  1.443376e+00 -2.500000e+00  0.000000e+00
     vertex -1.443376e+00 -2.500000e+00  0.000000e+00
   endloop
 endfacet
 facet normal  0.000000e+00  0.000000e+00 -1.000000e+00
   outer loop
     vertex  1.443376e+00  2.500000e+00  0.000000e+00
     vertex  2.886751e+00  0.000000e+00  0.000000e+00
     vertex  1.443376e+00 -2.500000e+00  0.000000e+00
   endloop
 endfacet
 facet normal -0.000000e+00  0.000000e+00 -1.000000e+00
   outer loop
     vertex  1.443376e+00  2.500000e+00  0.000000e+00
     vertex -1.443376e+00 -2.500000e+00  0.000000e+00
     vertex -1.443376e+00  2.500000e+00  0.000000e+00
   endloop
 endfacet
 facet normal  0.000000e+00  0.000000e+00  1.000000e+00
   outer loop
     vertex -1.443376e+00  2.500000e+00  2.000000e+00
     vertex -2.886751e+00  3.535251e-16  2.000000e+00
     vertex -1.443376e+00 -2.500000e+00  2.000000e+00
   endloop
 endfacet
 facet normal  0.000000e+00  0.000000e+00  1.000000e+00
   outer loop
     vertex  1.443376e+00  2.500000e+00  2.000000e+00
     vertex -1.443376e+00 -2.500000e+00  2.000000e+00
     vertex  1.443376e+00 -2.500000e+00  2.000000e+00
   endloop
 endfacet
 facet normal  0.000000e+00  0.000000e+00  1.000000e+00
   outer loop
     vertex  1.443376e+00  2.500000e+00  2.000000e+00
     vertex  1.443376e+00 -2.500000e+00  2.000000e+00
     vertex  2.886751e+00  0.000000e+00  2.000000e+00
   endloop
 endfacet
 facet normal  0.000000e+00  0.000000e+00  1.000000e+00
   outer loop
     vertex  1.443376e+00  2.500000e+00  2.000000e+00
     vertex -1.443376e+00  2.500000e+00  2.000000e+00
     vertex -1.443376e+00 -2.500000e+00  2.000000e+00
   endloop
 endfacet
endsolid
