solid 
 facet normal  0.000000e+00 -1.000000e+00  0.000000e+00
   outer loop
     vertex  1.500000e+01  0.000000e+00  0.000000e+00
     vertex -1.500000e+01  0.000000e+00  2.500000e+00
     vertex -1.500000e+01  0.000000e+00  0.000000e+00
   endloop
 endfacet
 facet normal  0.000000e+00 -1.000000e+00  0.000000e+00
   outer loop
     vertex  1.500000e+01  0.000000e+00  0.000000e+00
     vertex  1.500000e+01  0.000000e+00  2.500000e+00
     vertex -1.500000e+01  0.000000e+00  2.500000e+00
   endloop
 endfacet
 facet normal  7.071068e-01  7.071068e-01  0.000000e+00
   outer loop
     vertex  0.000000e+00  1.500000e+01  0.000000e+00
     vertex  1.500000e+01  0.000000e+00  2.500000e+00
     vertex  1.500000e+01  0.000000e+00  0.000000e+00
   endloop
 endfacet
 facet normal  7.071068e-01  7.071068e-01 -0.000000e+00
   outer loop
     vertex  0.000000e+00  1.500000e+01  0.000000e+00
     vertex  0.000000e+00  1.500000e+01  2.500000e+00
     vertex  1.500000e+01  0.000000e+00  2.500000e+00
   endloop
 endfacet
 facet normal -7.071068e-01  7.071068e-01  0.000000e+00
   outer loop
     vertex -1.500000e+01  0.000000e+00  0.000000e+00
     vertex  0.000000e+00  1.500000e+01  2.500000e+00
     vertex  0.000000e+00  1.500000e+01  0.000000e+00
   endloop
 endfacet
 facet normal -7.071068e-01  7.071068e-01  0.000000e+00
   outer loop
     vertex -1.500000e+01  0.000000e+00  0.000000e+00
     vertex -1.500000e+01  0.000000e+00  2.500000e+00
     vertex  0.000000e+00  1.500000e+01  2.500000e+00
   endloop
 endfacet
 facet normal  0.000000e+00  0.000000e+00 -1.000000e+00
   outer loop
     vertex  1.500000e+01  0.000000e+00  0.000000e+00
     vertex -1.500000e+01  0.000000e+00  0.000000e+00
     vertex  0.000000e+00  1.500000e+01  0.000000e+00
   endloop
 endfacet
 facet normal  0.000000e+00  0.000000e+00  1.000000e+00
   outer loop
     vertex  1.500000e+01  0.000000e+00  2.500000e+00
     vertex  0.000000e+00  1.500000e+01  2.500000e+00
     vertex -1.500000e+01  0.000000e+00  2.500000e+00
   endloop
 endfacet
endsolid
